<svg xmlns="http://www.w3.org/2000/svg" version="1.1" xmlns:xlink="http://www.w3.org/1999/xlink" xmlns:svgjs="http://svgjs.dev/svgjs" width="1500" height="939" viewBox="0 0 1500 939"><g transform="matrix(1,0,0,1,-0.9090909090909918,-1.5145161290323017)"><svg viewBox="0 0 396 248" data-background-color="#f8f5f0" preserveAspectRatio="xMidYMid meet" height="939" width="1500" xmlns="http://www.w3.org/2000/svg" xmlns:xlink="http://www.w3.org/1999/xlink"><g id="tight-bounds" transform="matrix(1,0,0,1,0.2400000000000091,0.4000000000000057)"><svg viewBox="0 0 395.52 247.2" height="247.2" width="395.52"><g><svg></svg></g><g><svg viewBox="0 0 395.52 247.2" height="247.2" width="395.52"><mask id="2e9a0ff5-38e2-408a-b73c-8fc1b6e89df2"><rect width="640" height="400" fill="white"></rect><g transform="matrix(1,0,0,1,39.55199999999999,51.470312170833566)"><svg viewBox="0 0 316.416 144.25937565833286" height="144.25937565833286" width="316.416"><g><svg viewBox="0 0 316.416 144.25937565833286" height="144.25937565833286" width="316.416"><g><svg viewBox="0 0 316.416 144.25937565833286" height="144.25937565833286" width="316.416"><g><svg viewBox="0 0 316.416 144.25937565833286" height="144.25937565833286" width="316.416"><g id="SvgjsG5200"><svg viewBox="0 0 316.416 144.25937565833286" height="144.25937565833286" width="316.416" id="SvgjsSvg5199"><g><svg viewBox="0 0 316.416 95.0651175166297" height="95.0651175166297" width="316.416"><g transform="matrix(1,0,0,1,0,0)"><svg width="316.416" viewBox="-0.5 -41.7 181.39 55.2" height="95.0651175166297" data-palette-color="#1a1a1a"><path d="M8.25 0L3.5 0 3.5-26.5 8.25-26.5 8.25-22.65 8.45-22.65Q8.85-23.4 9.7-24.43 10.55-25.45 12.03-26.23 13.5-27 15.75-27L15.75-27Q18.7-27 20.73-25.58 22.75-24.15 23.75-21.75L23.75-21.75 23.8-21.75Q24.9-23.95 26.93-25.48 28.95-27 32.2-27L32.2-27Q36.5-27 38.83-24.08 41.15-21.15 41.15-16.55L41.15-16.55 41.15 0 36.4 0 36.4-16.3Q36.4-19.25 35-21.08 33.6-22.9 30.95-22.9L30.95-22.9Q28.65-22.9 27.28-21.65 25.9-20.4 25.3-18.55 24.7-16.7 24.7-14.85L24.7-14.85 24.7 0 19.95 0 19.95-16.3Q19.95-19.25 18.57-21.08 17.2-22.9 14.5-22.9L14.5-22.9Q12.2-22.9 10.83-21.65 9.45-20.4 8.85-18.53 8.25-16.65 8.25-14.85L8.25-14.85 8.25 0ZM60.7 0.5L60.7 0.5Q56.45 0.5 53.55-1.48 50.65-3.45 49.15-6.6 47.65-9.75 47.65-13.25L47.65-13.25Q47.65-16.8 49.15-19.93 50.65-23.05 53.55-25.03 56.45-27 60.7-27L60.7-27Q64.95-27 67.85-25.03 70.75-23.05 72.25-19.93 73.75-16.8 73.75-13.25L73.75-13.25Q73.75-9.75 72.25-6.6 70.75-3.45 67.85-1.48 64.95 0.5 60.7 0.5ZM60.7-3.65L60.7-3.65Q63.4-3.65 65.22-5.03 67.05-6.4 67.97-8.6 68.9-10.8 68.9-13.25L68.9-13.25Q68.9-15.75 67.97-17.93 67.05-20.1 65.22-21.48 63.4-22.85 60.7-22.85L60.7-22.85Q58.05-22.85 56.2-21.48 54.35-20.1 53.42-17.93 52.5-15.75 52.5-13.25L52.5-13.25Q52.5-10.8 53.42-8.6 54.35-6.4 56.2-5.03 58.05-3.65 60.7-3.65ZM82.84-31.55L82.84-31.55Q81.5-31.55 80.62-32.45 79.75-33.35 79.75-34.6L79.75-34.6Q79.75-35.9 80.62-36.8 81.5-37.7 82.84-37.7L82.84-37.7Q84.15-37.7 85.05-36.8 85.95-35.9 85.95-34.6L85.95-34.6Q85.95-33.35 85.05-32.45 84.15-31.55 82.84-31.55ZM76.75 9.5L76.75 9.5Q75.34 9.5 74.42 9.35 73.5 9.2 73.5 9.2L73.5 9.2 73.5 5Q73.5 5 74.15 5.1 74.8 5.2 75.75 5.2L75.75 5.2Q78.4 5.2 79.45 4.03 80.5 2.85 80.5 0.35L80.5 0.35 80.5-26.5 85.25-26.5 85.25 0.35Q85.25 1.95 84.87 3.55 84.5 5.15 83.55 6.5 82.59 7.85 80.95 8.68 79.3 9.5 76.75 9.5ZM98.04-31.55L98.04-31.55Q96.69-31.55 95.82-32.45 94.94-33.35 94.94-34.6L94.94-34.6Q94.94-35.9 95.82-36.8 96.69-37.7 98.04-37.7L98.04-37.7Q99.34-37.7 100.24-36.8 101.14-35.9 101.14-34.6L101.14-34.6Q101.14-33.35 100.24-32.45 99.34-31.55 98.04-31.55ZM91.94 9.5L91.94 9.5Q90.54 9.5 89.62 9.35 88.69 9.2 88.69 9.2L88.69 9.2 88.69 5Q88.69 5 89.34 5.1 89.99 5.2 90.94 5.2L90.94 5.2Q93.59 5.2 94.64 4.03 95.69 2.85 95.69 0.35L95.69 0.35 95.69-26.5 100.44-26.5 100.44 0.35Q100.44 1.95 100.07 3.55 99.69 5.15 98.74 6.5 97.79 7.85 96.14 8.68 94.49 9.5 91.94 9.5ZM118.64-27L118.64-27Q121.14-27 122.84-26.2 124.54-25.4 125.59-24.33 126.64-23.25 127.19-22.3L127.19-22.3 127.49-22.3 127.49-26.5 132.24-26.5 132.24 0 127.49 0 127.49-4.2 127.19-4.2Q126.64-3.25 125.59-2.15 124.54-1.05 122.84-0.28 121.14 0.5 118.64 0.5L118.64 0.5Q115.64 0.5 113.39-0.68 111.14-1.85 109.64-3.83 108.14-5.8 107.39-8.25 106.64-10.7 106.64-13.25L106.64-13.25Q106.64-15.8 107.39-18.25 108.14-20.7 109.64-22.68 111.14-24.65 113.39-25.83 115.64-27 118.64-27ZM119.44-22.95L119.44-22.95Q116.79-22.95 114.99-21.53 113.19-20.1 112.32-17.9 111.44-15.7 111.44-13.25L111.44-13.25Q111.44-10.85 112.32-8.63 113.19-6.4 114.99-4.98 116.79-3.55 119.44-3.55L119.44-3.55Q122.09-3.55 123.87-4.98 125.64-6.4 126.52-8.63 127.39-10.85 127.39-13.25L127.39-13.25Q127.39-15.7 126.52-17.9 125.64-20.1 123.87-21.53 122.09-22.95 119.44-22.95ZM143.99 0L139.24 0 139.24-26.5 143.99-26.5 143.99-22.65 144.19-22.65Q144.59-23.4 145.44-24.43 146.29-25.45 147.76-26.23 149.24-27 151.49-27L151.49-27Q154.44-27 156.46-25.58 158.49-24.15 159.49-21.75L159.49-21.75 159.54-21.75Q160.64-23.95 162.66-25.48 164.69-27 167.94-27L167.94-27Q172.24-27 174.56-24.08 176.89-21.15 176.89-16.55L176.89-16.55 176.89 0 172.14 0 172.14-16.3Q172.14-19.25 170.74-21.08 169.34-22.9 166.69-22.9L166.69-22.9Q164.39-22.9 163.01-21.65 161.64-20.4 161.04-18.55 160.44-16.7 160.44-14.85L160.44-14.85 160.44 0 155.69 0 155.69-16.3Q155.69-19.25 154.31-21.08 152.94-22.9 150.24-22.9L150.24-22.9Q147.94-22.9 146.56-21.65 145.19-20.4 144.59-18.53 143.99-16.65 143.99-14.85L143.99-14.85 143.99 0Z" opacity="1" transform="matrix(1,0,0,1,0,0)" fill="black" class="wordmark-text-0" id="SvgjsPath5198" stroke-width="7" stroke="black" stroke-linejoin="round"></path></svg></g></svg></g><g transform="matrix(1,0,0,1,3.5,114.60922036959644)"><svg viewBox="0 0 309.416 29.650155288736414" height="29.650155288736414" width="309.416"><g transform="matrix(1,0,0,1,0,0)"><svg width="309.416" viewBox="-2.75 -30.55 438.25 42.900000000000006" height="29.650155288736414" data-palette-color="#1a1a1a"><path d="M22.7-2.75L23.25-1.7Q21.6-0.9 19.3-0.18 17 0.55 14.35 0.55L14.35 0.55Q11.3 0.55 9.55-0.98 7.8-2.5 7.8-6.15L7.8-6.15 7.8-16.65 1.25-16.65 1.25-17.85 7.8-17.85 7.8-22.8 9.05-22.8 9.05-17.85 21-17.85 21-16.65 9.05-16.65 9.05-6.15Q9.05-3.05 10.5-1.83 11.95-0.6 14.25-0.6L14.25-0.6Q16.85-0.6 19-1.28 21.15-1.95 22.7-2.75L22.7-2.75ZM59.1-4.4L59.65-3.4Q56.8-1.65 53.35-0.55 49.9 0.55 44.8 0.55L44.8 0.55Q40.75 0.55 37.48-0.53 34.2-1.6 32.25-3.63 30.3-5.65 30.3-8.5L30.3-8.5Q30.3-10.9 31.65-12.73 33-14.55 35.3-15.8 37.6-17.05 40.45-17.68 43.3-18.3 46.3-18.3L46.3-18.3Q52-18.3 55.48-16.78 58.95-15.25 58.95-12.45L58.95-12.45Q58.95-10.5 57.38-9.3 55.8-8.1 53.1-7.53 50.4-6.95 47-6.95L47-6.95Q43-6.95 39.25-7.65 35.5-8.35 31.65-9.6L31.65-9.6Q31.55-9.05 31.55-8.5L31.55-8.5Q31.55-6.15 33.28-4.38 35-2.6 38-1.63 41-0.65 44.8-0.6L44.8-0.6Q49.5-0.55 52.93-1.63 56.35-2.7 59.1-4.4L59.1-4.4ZM46.3-17.15L46.3-17.15Q43.05-17.15 40.08-16.38 37.1-15.6 34.9-14.15 32.7-12.7 31.9-10.6L31.9-10.6Q39.35-8.15 47-8.15L47-8.15Q50-8.15 52.43-8.58 54.85-9 56.28-9.95 57.7-10.9 57.7-12.45L57.7-12.45Q57.7-14.7 54.65-15.93 51.6-17.15 46.3-17.15ZM97.2-5.65L97.9-4.75Q94.95-2.4 91.13-0.95 87.3 0.5 82.2 0.5L82.2 0.5Q78.3 0.5 75.05-0.58 71.8-1.65 69.88-3.68 67.95-5.7 67.95-8.55L67.95-8.55Q67.95-11.05 69.23-12.88 70.5-14.7 72.65-15.93 74.8-17.15 77.45-17.75 80.1-18.35 82.8-18.3L82.8-18.3Q87.1-18.3 90.75-16.85 94.4-15.4 96.45-13.25L96.45-13.25 96.45-17.85 97.6-17.85 97.6-11.05 97.3-10.95Q95.65-13.15 93.28-14.5 90.9-15.85 88.18-16.5 85.45-17.15 82.7-17.15L82.7-17.15Q80.2-17.15 77.8-16.63 75.4-16.1 73.45-15 71.5-13.9 70.35-12.3 69.2-10.7 69.2-8.55L69.2-8.55Q69.2-6.2 70.93-4.42 72.65-2.65 75.6-1.68 78.55-0.7 82.2-0.65L82.2-0.65Q86.9-0.6 90.65-2.05 94.4-3.5 97.2-5.65L97.2-5.65ZM122.6-1.1L122.6 0.05 104.2 0.05 104.2-1.1 113.4-1.1 113.4-24.8 104.25-24.8 104.25-26 114.65-26 114.65-11.05Q115.9-12.1 117.58-13.35 119.25-14.6 121.25-15.73 123.25-16.85 125.5-17.57 127.75-18.3 130.15-18.3L130.15-18.3Q134.05-18.3 136.28-16.68 138.5-15.05 139.45-12.4 140.4-9.75 140.4-6.7L140.4-6.7 140.4-1.1 149.05-1.1 149.05 0.05 131.1 0.05 131.1-1.1 139.15-1.1 139.15-6.7Q139.15-8.6 138.75-10.48 138.35-12.35 137.38-13.85 136.4-15.35 134.65-16.25 132.9-17.15 130.15-17.15L130.15-17.15Q127.75-17.15 125.5-16.4 123.25-15.65 121.25-14.53 119.25-13.4 117.58-12.15 115.9-10.9 114.65-9.9L114.65-9.9 114.65-1.1 122.6-1.1ZM170.6-1.1L170.6 0.05 152.2 0.05 152.2-1.1 161.35-1.1 161.35-16.65 152.2-16.65 152.2-17.85 162.6-17.85 162.6-11.05Q163.85-12.05 165.53-13.3 167.2-14.55 169.2-15.7 171.2-16.85 173.45-17.57 175.7-18.3 178.1-18.3L178.1-18.3Q182.05-18.3 184.3-16.68 186.55-15.05 187.48-12.4 188.4-9.75 188.4-6.7L188.4-6.7 188.4-1.1 197.05-1.1 197.05 0.05 179.1 0.05 179.1-1.1 187.15-1.1 187.15-6.7Q187.15-8.6 186.78-10.48 186.4-12.35 185.4-13.85 184.4-15.35 182.65-16.25 180.9-17.15 178.1-17.15L178.1-17.15Q175.7-17.15 173.45-16.4 171.2-15.65 169.2-14.5 167.2-13.35 165.53-12.13 163.85-10.9 162.6-9.85L162.6-9.85 162.6-1.1 170.6-1.1ZM233.75-8.95L233.75-8.95Q233.75-5.95 231.63-3.83 229.5-1.7 225.88-0.58 222.25 0.55 217.75 0.55L217.75 0.55Q213.3 0.55 209.65-0.58 206-1.7 203.88-3.83 201.75-5.95 201.75-8.95L201.75-8.95Q201.75-12 203.88-14.08 206-16.15 209.65-17.23 213.3-18.3 217.75-18.3L217.75-18.3Q222.25-18.3 225.88-17.23 229.5-16.15 231.63-14.08 233.75-12 233.75-8.95ZM203-8.95L203-8.95Q203-6.35 204.95-4.48 206.9-2.6 210.23-1.6 213.55-0.6 217.75-0.6L217.75-0.6Q221.95-0.6 225.28-1.6 228.6-2.6 230.55-4.48 232.5-6.35 232.5-8.95L232.5-8.95Q232.5-11.6 230.55-13.43 228.6-15.25 225.28-16.2 221.95-17.15 217.75-17.15L217.75-17.15Q213.55-17.15 210.23-16.18 206.9-15.2 204.95-13.4 203-11.6 203-8.95ZM258.8-1.1L258.8 0.05 239.3 0.05 239.3-1.1 248.4-1.1 248.4-24.8 239.3-24.8 239.3-26 249.65-26 249.65-1.1 258.8-1.1ZM296.35-8.95L296.35-8.95Q296.35-5.95 294.23-3.83 292.1-1.7 288.48-0.58 284.85 0.55 280.35 0.55L280.35 0.55Q275.9 0.55 272.25-0.58 268.6-1.7 266.48-3.83 264.35-5.95 264.35-8.95L264.35-8.95Q264.35-12 266.48-14.08 268.6-16.15 272.25-17.23 275.9-18.3 280.35-18.3L280.35-18.3Q284.85-18.3 288.48-17.23 292.1-16.15 294.23-14.08 296.35-12 296.35-8.95ZM265.6-8.95L265.6-8.95Q265.6-6.35 267.55-4.48 269.5-2.6 272.82-1.6 276.15-0.6 280.35-0.6L280.35-0.6Q284.55-0.6 287.88-1.6 291.2-2.6 293.15-4.48 295.1-6.35 295.1-8.95L295.1-8.95Q295.1-11.6 293.15-13.43 291.2-15.25 287.88-16.2 284.55-17.15 280.35-17.15L280.35-17.15Q276.15-17.15 272.82-16.18 269.5-15.2 267.55-13.4 265.6-11.6 265.6-8.95ZM332-11.9L332-11.9Q332-9.65 330.23-8.2 328.45-6.75 325.55-6.05 322.65-5.35 319.25-5.35L319.25-5.35Q315.95-5.3 313.08-5.98 310.2-6.65 308.55-8.1L308.55-8.1Q307.4-7.6 306.43-6.75 305.45-5.9 305.45-4.65L305.45-4.65Q305.45-3.9 306.1-3.1 306.75-2.3 308.25-1.75 309.75-1.2 312.35-1.2L312.35-1.2Q313.8-1.2 315.9-1.45 318-1.7 320.3-2.05 322.6-2.4 324.7-2.65 326.8-2.9 328.2-2.9L328.2-2.9Q331.05-2.9 333.03-1.83 335-0.75 335 1.6L335 1.6Q335 3.85 332.75 5.35 330.5 6.85 326.65 7.6 322.8 8.35 317.95 8.35L317.95 8.35Q310.5 8.35 307.2 6.68 303.9 5 303.9 2.55L303.9 2.55Q303.9 1.2 304.73 0.23 305.55-0.75 306.45-1.3L306.45-1.3Q305.2-2 304.75-2.88 304.3-3.75 304.3-4.5L304.3-4.5Q304.3-6.1 305.48-7.15 306.65-8.2 307.9-8.7L307.9-8.7Q306.65-10.1 306.65-11.9L306.65-11.9Q306.65-14.1 308.4-15.53 310.15-16.95 313.03-17.63 315.9-18.3 319.25-18.3L319.25-18.3Q321.9-18.3 324.25-17.9 326.6-17.5 328.4-16.65L328.4-16.65Q329-19.3 330.78-20.75 332.55-22.2 334.95-22.3L334.95-22.3 334.95-21.05Q332.95-20.95 331.4-19.9 329.85-18.85 329.05-16.3L329.05-16.3Q330.4-15.55 331.2-14.45 332-13.35 332-11.9ZM307.9-11.9L307.9-11.9Q307.9-10.15 309.45-8.95 311-7.75 313.6-7.15 316.2-6.55 319.25-6.55L319.25-6.55Q322.4-6.55 325-7.15 327.6-7.75 329.15-8.95 330.7-10.15 330.7-11.9L330.7-11.9Q330.7-13.7 329.15-14.85 327.6-16 325-16.57 322.4-17.15 319.25-17.15L319.25-17.15Q316.2-17.15 313.6-16.57 311-16 309.45-14.85 307.9-13.7 307.9-11.9ZM305.15 2.4L305.15 2.4Q305.15 4.4 308.08 5.78 311 7.15 317.9 7.15L317.9 7.15Q322.4 7.15 326 6.58 329.6 6 331.68 4.75 333.75 3.5 333.75 1.6L333.75 1.6Q333.75-0.15 332.23-0.93 330.7-1.7 328.2-1.7L328.2-1.7Q326.7-1.7 324.63-1.48 322.55-1.25 320.25-0.93 317.95-0.6 315.83-0.38 313.7-0.15 312.2-0.15L312.2-0.15Q310.65-0.15 309.45-0.35 308.25-0.55 307.4-0.85L307.4-0.85Q306.4-0.35 305.78 0.53 305.15 1.4 305.15 2.4ZM352.4-24.95L352.4-24.95Q352.4-24.3 351.8-23.88 351.2-23.45 350.05-23.45L350.05-23.45Q348.95-23.45 348.3-23.88 347.65-24.3 347.65-24.95L347.65-24.95Q347.65-25.65 348.3-26.1 348.95-26.55 350.05-26.55L350.05-26.55Q351.2-26.55 351.8-26.1 352.4-25.65 352.4-24.95ZM360.35-1.1L360.35 0.05 340.8 0.05 340.8-1.1 349.95-1.1 349.95-16.65 340.8-16.65 340.8-17.85 351.2-17.85 351.2-1.1 360.35-1.1ZM394.65-4.4L395.2-3.4Q392.35-1.65 388.9-0.55 385.45 0.55 380.35 0.55L380.35 0.55Q376.3 0.55 373.03-0.53 369.75-1.6 367.8-3.63 365.85-5.65 365.85-8.5L365.85-8.5Q365.85-10.9 367.2-12.73 368.55-14.55 370.85-15.8 373.15-17.05 376-17.68 378.85-18.3 381.85-18.3L381.85-18.3Q387.55-18.3 391.03-16.78 394.5-15.25 394.5-12.45L394.5-12.45Q394.5-10.5 392.93-9.3 391.35-8.1 388.65-7.53 385.95-6.95 382.55-6.95L382.55-6.95Q378.55-6.95 374.8-7.65 371.05-8.35 367.2-9.6L367.2-9.6Q367.1-9.05 367.1-8.5L367.1-8.5Q367.1-6.15 368.82-4.38 370.55-2.6 373.55-1.63 376.55-0.65 380.35-0.6L380.35-0.6Q385.05-0.55 388.48-1.63 391.9-2.7 394.65-4.4L394.65-4.4ZM381.85-17.15L381.85-17.15Q378.6-17.15 375.63-16.38 372.65-15.6 370.45-14.15 368.25-12.7 367.45-10.6L367.45-10.6Q374.9-8.15 382.55-8.15L382.55-8.15Q385.55-8.15 387.98-8.58 390.4-9 391.82-9.95 393.25-10.9 393.25-12.45L393.25-12.45Q393.25-14.7 390.2-15.93 387.15-17.15 381.85-17.15ZM431.5-4.25L431.5-4.25Q431.5-1.75 428.4-0.6 425.3 0.55 419.95 0.55L419.95 0.55Q415.3 0.55 411.4-0.85 407.5-2.25 405.4-4.25L405.4-4.25 405.4 0.05 404.2 0.05 404.2-6.75Q405.95-4.6 408.52-3.23 411.1-1.85 414.13-1.2 417.15-0.55 420.2-0.55L420.2-0.55Q422.85-0.55 425.13-0.85 427.4-1.15 428.82-1.93 430.25-2.7 430.25-4.2L430.25-4.2Q430.25-5.5 429.02-6.25 427.8-7 425.05-7.45 422.3-7.9 417.7-8.15L417.7-8.15Q410.8-8.55 407.68-9.78 404.55-11 404.55-13.3L404.55-13.3Q404.55-15.55 407.18-16.93 409.8-18.3 415.45-18.3L415.45-18.3Q420.1-18.3 423.75-16.9 427.4-15.5 429.45-13.4L429.45-13.4 429.45-17.85 430.65-17.85 430.65-10.95Q427.9-14.2 423.93-15.7 419.95-17.2 415.2-17.2L415.2-17.2Q410.8-17.2 408.27-16.25 405.75-15.3 405.75-13.4L405.75-13.4Q405.75-11.65 408.45-10.73 411.15-9.8 417.7-9.4L417.7-9.4Q424.85-8.95 428.18-7.95 431.5-6.95 431.5-4.25Z" opacity="1" transform="matrix(1,0,0,1,0,0)" fill="black" class="slogan-text-1" id="SvgjsPath5197" stroke-width="7" stroke="black" stroke-linejoin="round"></path></svg></g></svg></g></svg></g></svg></g><g></g></svg></g></svg></g></svg></g></mask><g transform="matrix(1,0,0,1,39.55199999999999,51.470312170833566)"><svg viewBox="0 0 316.416 144.25937565833286" height="144.25937565833286" width="316.416"><g><svg viewBox="0 0 316.416 144.25937565833286" height="144.25937565833286" width="316.416"><g><svg viewBox="0 0 316.416 144.25937565833286" height="144.25937565833286" width="316.416"><g><svg viewBox="0 0 316.416 144.25937565833286" height="144.25937565833286" width="316.416"><g id="textblocktransform"><svg viewBox="0 0 316.416 144.25937565833286" height="144.25937565833286" width="316.416" id="textblock"><g><svg viewBox="0 0 316.416 95.0651175166297" height="95.0651175166297" width="316.416"><g transform="matrix(1,0,0,1,0,0)"><svg width="316.416" viewBox="-0.5 -41.7 181.39 55.2" height="95.0651175166297" data-palette-color="#1a1a1a"><path d="M8.25 0L3.5 0 3.5-26.5 8.25-26.5 8.25-22.65 8.45-22.65Q8.85-23.4 9.7-24.43 10.55-25.45 12.03-26.23 13.5-27 15.75-27L15.75-27Q18.7-27 20.73-25.58 22.75-24.15 23.75-21.75L23.75-21.75 23.8-21.75Q24.9-23.95 26.93-25.48 28.95-27 32.2-27L32.2-27Q36.5-27 38.83-24.08 41.15-21.15 41.15-16.55L41.15-16.55 41.15 0 36.4 0 36.4-16.3Q36.4-19.25 35-21.08 33.6-22.9 30.95-22.9L30.95-22.9Q28.65-22.9 27.28-21.65 25.9-20.4 25.3-18.55 24.7-16.7 24.7-14.85L24.7-14.85 24.7 0 19.95 0 19.95-16.3Q19.95-19.25 18.57-21.08 17.2-22.9 14.5-22.9L14.5-22.9Q12.2-22.9 10.83-21.65 9.45-20.4 8.85-18.53 8.25-16.65 8.25-14.85L8.25-14.85 8.25 0ZM60.7 0.5L60.7 0.5Q56.45 0.5 53.55-1.48 50.65-3.45 49.15-6.6 47.65-9.75 47.65-13.25L47.65-13.25Q47.65-16.8 49.15-19.93 50.65-23.05 53.55-25.03 56.45-27 60.7-27L60.7-27Q64.95-27 67.85-25.03 70.75-23.05 72.25-19.93 73.75-16.8 73.75-13.25L73.75-13.25Q73.75-9.75 72.25-6.6 70.75-3.45 67.85-1.48 64.95 0.5 60.7 0.5ZM60.7-3.65L60.7-3.65Q63.4-3.65 65.22-5.03 67.05-6.4 67.97-8.6 68.9-10.8 68.9-13.25L68.9-13.25Q68.9-15.75 67.97-17.93 67.05-20.1 65.22-21.48 63.4-22.85 60.7-22.85L60.7-22.85Q58.05-22.85 56.2-21.48 54.35-20.1 53.42-17.93 52.5-15.75 52.5-13.25L52.5-13.25Q52.5-10.8 53.42-8.6 54.35-6.4 56.2-5.03 58.05-3.65 60.7-3.65ZM82.84-31.55L82.84-31.55Q81.5-31.55 80.62-32.45 79.75-33.35 79.75-34.6L79.75-34.6Q79.75-35.9 80.62-36.8 81.5-37.7 82.84-37.7L82.84-37.7Q84.15-37.7 85.05-36.8 85.95-35.9 85.95-34.6L85.95-34.6Q85.95-33.35 85.05-32.45 84.15-31.55 82.84-31.55ZM76.75 9.5L76.75 9.5Q75.34 9.5 74.42 9.35 73.5 9.2 73.5 9.2L73.5 9.2 73.5 5Q73.5 5 74.15 5.1 74.8 5.2 75.75 5.2L75.75 5.2Q78.4 5.2 79.45 4.03 80.5 2.85 80.5 0.35L80.5 0.35 80.5-26.5 85.25-26.5 85.25 0.35Q85.25 1.95 84.87 3.55 84.5 5.15 83.55 6.5 82.59 7.85 80.95 8.68 79.3 9.5 76.75 9.5ZM98.04-31.55L98.04-31.55Q96.69-31.55 95.82-32.45 94.94-33.35 94.94-34.6L94.94-34.6Q94.94-35.9 95.82-36.8 96.69-37.7 98.04-37.7L98.04-37.7Q99.34-37.7 100.24-36.8 101.14-35.9 101.14-34.6L101.14-34.6Q101.14-33.35 100.24-32.45 99.34-31.55 98.04-31.55ZM91.94 9.5L91.94 9.5Q90.54 9.5 89.62 9.35 88.69 9.2 88.69 9.2L88.69 9.2 88.69 5Q88.69 5 89.34 5.1 89.99 5.2 90.94 5.2L90.94 5.2Q93.59 5.2 94.64 4.03 95.69 2.85 95.69 0.35L95.69 0.35 95.69-26.5 100.44-26.5 100.44 0.35Q100.44 1.95 100.07 3.55 99.69 5.15 98.74 6.5 97.79 7.85 96.14 8.68 94.49 9.5 91.94 9.5ZM118.64-27L118.64-27Q121.14-27 122.84-26.2 124.54-25.4 125.59-24.33 126.64-23.25 127.19-22.3L127.19-22.3 127.49-22.3 127.49-26.5 132.24-26.5 132.24 0 127.49 0 127.49-4.2 127.19-4.2Q126.64-3.25 125.59-2.15 124.54-1.05 122.84-0.28 121.14 0.5 118.64 0.5L118.64 0.5Q115.64 0.5 113.39-0.68 111.14-1.85 109.64-3.83 108.14-5.8 107.39-8.25 106.64-10.7 106.64-13.25L106.64-13.25Q106.64-15.8 107.39-18.25 108.14-20.7 109.64-22.68 111.14-24.65 113.39-25.83 115.64-27 118.64-27ZM119.44-22.95L119.44-22.95Q116.79-22.95 114.99-21.53 113.19-20.1 112.32-17.9 111.44-15.7 111.44-13.25L111.44-13.25Q111.44-10.85 112.32-8.63 113.19-6.4 114.99-4.98 116.79-3.55 119.44-3.55L119.44-3.55Q122.09-3.55 123.87-4.98 125.64-6.4 126.52-8.63 127.39-10.85 127.39-13.25L127.39-13.25Q127.39-15.7 126.52-17.9 125.64-20.1 123.87-21.53 122.09-22.95 119.44-22.95ZM143.99 0L139.24 0 139.24-26.5 143.99-26.5 143.99-22.65 144.19-22.65Q144.59-23.4 145.44-24.43 146.29-25.45 147.76-26.23 149.24-27 151.49-27L151.49-27Q154.44-27 156.46-25.58 158.49-24.15 159.49-21.75L159.49-21.75 159.54-21.75Q160.64-23.95 162.66-25.48 164.69-27 167.94-27L167.94-27Q172.24-27 174.56-24.08 176.89-21.15 176.89-16.55L176.89-16.55 176.89 0 172.14 0 172.14-16.3Q172.14-19.25 170.74-21.08 169.34-22.9 166.69-22.9L166.69-22.9Q164.39-22.9 163.01-21.65 161.64-20.4 161.04-18.55 160.44-16.7 160.44-14.85L160.44-14.85 160.44 0 155.69 0 155.69-16.3Q155.69-19.25 154.31-21.08 152.94-22.9 150.24-22.9L150.24-22.9Q147.94-22.9 146.56-21.65 145.19-20.4 144.59-18.53 143.99-16.65 143.99-14.85L143.99-14.85 143.99 0Z" opacity="1" transform="matrix(1,0,0,1,0,0)" fill="#1a1a1a" class="wordmark-text-0" data-fill-palette-color="primary" id="text-0"></path></svg></g></svg></g><g transform="matrix(1,0,0,1,3.5,114.60922036959644)"><svg viewBox="0 0 309.416 29.650155288736414" height="29.650155288736414" width="309.416"><g transform="matrix(1,0,0,1,0,0)"><svg width="309.416" viewBox="-2.75 -30.55 438.25 42.900000000000006" height="29.650155288736414" data-palette-color="#1a1a1a"><path d="M22.7-2.75L23.25-1.7Q21.6-0.9 19.3-0.18 17 0.55 14.35 0.55L14.35 0.55Q11.3 0.55 9.55-0.98 7.8-2.5 7.8-6.15L7.8-6.15 7.8-16.65 1.25-16.65 1.25-17.85 7.8-17.85 7.8-22.8 9.05-22.8 9.05-17.85 21-17.85 21-16.65 9.05-16.65 9.05-6.15Q9.05-3.05 10.5-1.83 11.95-0.6 14.25-0.6L14.25-0.6Q16.85-0.6 19-1.28 21.15-1.95 22.7-2.75L22.7-2.75ZM59.1-4.4L59.65-3.4Q56.8-1.65 53.35-0.55 49.9 0.55 44.8 0.55L44.8 0.55Q40.75 0.55 37.48-0.53 34.2-1.6 32.25-3.63 30.3-5.65 30.3-8.5L30.3-8.5Q30.3-10.9 31.65-12.73 33-14.55 35.3-15.8 37.6-17.05 40.45-17.68 43.3-18.3 46.3-18.3L46.3-18.3Q52-18.3 55.48-16.78 58.95-15.25 58.95-12.45L58.95-12.45Q58.95-10.5 57.38-9.3 55.8-8.1 53.1-7.53 50.4-6.95 47-6.95L47-6.95Q43-6.95 39.25-7.65 35.5-8.35 31.65-9.6L31.65-9.6Q31.55-9.05 31.55-8.5L31.55-8.5Q31.55-6.15 33.28-4.38 35-2.6 38-1.63 41-0.65 44.8-0.6L44.8-0.6Q49.5-0.55 52.93-1.63 56.35-2.7 59.1-4.4L59.1-4.4ZM46.3-17.15L46.3-17.15Q43.05-17.15 40.08-16.38 37.1-15.6 34.9-14.15 32.7-12.7 31.9-10.6L31.9-10.6Q39.35-8.15 47-8.15L47-8.15Q50-8.15 52.43-8.58 54.85-9 56.28-9.95 57.7-10.9 57.7-12.45L57.7-12.45Q57.7-14.7 54.65-15.93 51.6-17.15 46.3-17.15ZM97.2-5.65L97.9-4.75Q94.95-2.4 91.13-0.95 87.3 0.5 82.2 0.5L82.2 0.5Q78.3 0.5 75.05-0.58 71.8-1.65 69.88-3.68 67.95-5.7 67.95-8.55L67.95-8.55Q67.95-11.05 69.23-12.88 70.5-14.7 72.65-15.93 74.8-17.15 77.45-17.75 80.1-18.35 82.8-18.3L82.8-18.3Q87.1-18.3 90.75-16.85 94.4-15.4 96.45-13.25L96.45-13.25 96.45-17.85 97.6-17.85 97.6-11.05 97.3-10.95Q95.65-13.15 93.28-14.5 90.9-15.85 88.18-16.5 85.45-17.15 82.7-17.15L82.7-17.15Q80.2-17.15 77.8-16.63 75.4-16.1 73.45-15 71.5-13.9 70.35-12.3 69.2-10.7 69.2-8.55L69.2-8.55Q69.2-6.2 70.93-4.42 72.65-2.65 75.6-1.68 78.55-0.7 82.2-0.65L82.2-0.65Q86.9-0.6 90.65-2.05 94.4-3.5 97.2-5.65L97.2-5.65ZM122.6-1.1L122.6 0.05 104.2 0.05 104.2-1.1 113.4-1.1 113.4-24.8 104.25-24.8 104.25-26 114.65-26 114.65-11.05Q115.9-12.1 117.58-13.35 119.25-14.6 121.25-15.73 123.25-16.85 125.5-17.57 127.75-18.3 130.15-18.3L130.15-18.3Q134.05-18.3 136.28-16.68 138.5-15.05 139.45-12.4 140.4-9.75 140.4-6.7L140.4-6.7 140.4-1.1 149.05-1.1 149.05 0.05 131.1 0.05 131.1-1.1 139.15-1.1 139.15-6.7Q139.15-8.6 138.75-10.48 138.35-12.35 137.38-13.85 136.4-15.35 134.65-16.25 132.9-17.15 130.15-17.15L130.15-17.15Q127.75-17.15 125.5-16.4 123.25-15.65 121.25-14.53 119.25-13.4 117.58-12.15 115.9-10.9 114.65-9.9L114.65-9.9 114.65-1.1 122.6-1.1ZM170.6-1.1L170.6 0.05 152.2 0.05 152.2-1.1 161.35-1.1 161.35-16.65 152.2-16.65 152.2-17.85 162.6-17.85 162.6-11.05Q163.85-12.05 165.53-13.3 167.2-14.55 169.2-15.7 171.2-16.85 173.45-17.57 175.7-18.3 178.1-18.3L178.1-18.3Q182.05-18.3 184.3-16.68 186.55-15.05 187.48-12.4 188.4-9.75 188.4-6.7L188.4-6.7 188.4-1.1 197.05-1.1 197.05 0.05 179.1 0.05 179.1-1.1 187.15-1.1 187.15-6.7Q187.15-8.6 186.78-10.48 186.4-12.35 185.4-13.85 184.4-15.35 182.65-16.25 180.9-17.15 178.1-17.15L178.1-17.15Q175.7-17.15 173.45-16.4 171.2-15.65 169.2-14.5 167.2-13.35 165.53-12.13 163.85-10.9 162.6-9.85L162.6-9.85 162.6-1.1 170.6-1.1ZM233.75-8.95L233.75-8.95Q233.75-5.95 231.63-3.83 229.5-1.7 225.88-0.58 222.25 0.55 217.75 0.55L217.75 0.55Q213.3 0.55 209.65-0.58 206-1.7 203.88-3.83 201.75-5.95 201.75-8.95L201.75-8.95Q201.75-12 203.88-14.08 206-16.15 209.65-17.23 213.3-18.3 217.75-18.3L217.75-18.3Q222.25-18.3 225.88-17.23 229.5-16.15 231.63-14.08 233.75-12 233.75-8.95ZM203-8.95L203-8.95Q203-6.35 204.95-4.48 206.9-2.6 210.23-1.6 213.55-0.6 217.75-0.6L217.75-0.6Q221.95-0.6 225.28-1.6 228.6-2.6 230.55-4.48 232.5-6.35 232.5-8.95L232.5-8.95Q232.5-11.6 230.55-13.43 228.6-15.25 225.28-16.2 221.95-17.15 217.75-17.15L217.75-17.15Q213.55-17.15 210.23-16.18 206.9-15.2 204.95-13.4 203-11.6 203-8.95ZM258.8-1.1L258.8 0.05 239.3 0.05 239.3-1.1 248.4-1.1 248.4-24.8 239.3-24.8 239.3-26 249.65-26 249.65-1.1 258.8-1.1ZM296.35-8.95L296.35-8.95Q296.35-5.95 294.23-3.83 292.1-1.7 288.48-0.58 284.85 0.55 280.35 0.55L280.35 0.55Q275.9 0.55 272.25-0.58 268.6-1.7 266.48-3.83 264.35-5.95 264.35-8.95L264.35-8.95Q264.35-12 266.48-14.08 268.6-16.15 272.25-17.23 275.9-18.3 280.35-18.3L280.35-18.3Q284.85-18.3 288.48-17.23 292.1-16.15 294.23-14.08 296.35-12 296.35-8.95ZM265.6-8.95L265.6-8.95Q265.6-6.35 267.55-4.48 269.5-2.6 272.82-1.6 276.15-0.6 280.35-0.6L280.35-0.6Q284.55-0.6 287.88-1.6 291.2-2.6 293.15-4.48 295.1-6.35 295.1-8.95L295.1-8.95Q295.1-11.6 293.15-13.43 291.2-15.25 287.88-16.2 284.55-17.15 280.35-17.15L280.35-17.15Q276.15-17.15 272.82-16.18 269.5-15.2 267.55-13.4 265.6-11.6 265.6-8.95ZM332-11.9L332-11.9Q332-9.65 330.23-8.2 328.45-6.75 325.55-6.05 322.65-5.35 319.25-5.35L319.25-5.35Q315.95-5.3 313.08-5.98 310.2-6.65 308.55-8.1L308.55-8.1Q307.4-7.6 306.43-6.75 305.45-5.9 305.45-4.65L305.45-4.65Q305.45-3.9 306.1-3.1 306.75-2.3 308.25-1.75 309.75-1.2 312.35-1.2L312.35-1.2Q313.8-1.2 315.9-1.45 318-1.7 320.3-2.05 322.6-2.4 324.7-2.65 326.8-2.9 328.2-2.9L328.2-2.9Q331.05-2.9 333.03-1.83 335-0.75 335 1.6L335 1.6Q335 3.85 332.75 5.35 330.5 6.85 326.65 7.6 322.8 8.35 317.95 8.35L317.95 8.35Q310.5 8.35 307.2 6.68 303.9 5 303.9 2.55L303.9 2.55Q303.9 1.2 304.73 0.23 305.55-0.75 306.45-1.3L306.45-1.3Q305.2-2 304.75-2.88 304.3-3.75 304.3-4.5L304.3-4.5Q304.3-6.1 305.48-7.15 306.65-8.2 307.9-8.7L307.9-8.7Q306.65-10.1 306.65-11.9L306.65-11.9Q306.65-14.1 308.4-15.53 310.15-16.95 313.03-17.63 315.9-18.3 319.25-18.3L319.25-18.3Q321.9-18.3 324.25-17.9 326.6-17.5 328.4-16.65L328.4-16.65Q329-19.3 330.78-20.75 332.55-22.2 334.95-22.3L334.95-22.3 334.95-21.05Q332.95-20.95 331.4-19.9 329.85-18.85 329.05-16.3L329.05-16.3Q330.4-15.55 331.2-14.45 332-13.35 332-11.9ZM307.9-11.9L307.9-11.9Q307.9-10.15 309.45-8.95 311-7.75 313.6-7.15 316.2-6.55 319.25-6.55L319.25-6.55Q322.4-6.55 325-7.15 327.6-7.75 329.15-8.95 330.7-10.15 330.7-11.9L330.7-11.9Q330.7-13.7 329.15-14.85 327.6-16 325-16.57 322.4-17.15 319.25-17.15L319.25-17.15Q316.2-17.15 313.6-16.57 311-16 309.45-14.85 307.9-13.7 307.9-11.9ZM305.15 2.4L305.15 2.4Q305.15 4.4 308.08 5.78 311 7.15 317.9 7.15L317.9 7.15Q322.4 7.15 326 6.58 329.6 6 331.68 4.75 333.75 3.5 333.75 1.6L333.75 1.6Q333.75-0.15 332.23-0.93 330.7-1.7 328.2-1.7L328.2-1.7Q326.7-1.7 324.63-1.48 322.55-1.25 320.25-0.93 317.95-0.6 315.83-0.38 313.7-0.15 312.2-0.15L312.2-0.15Q310.65-0.15 309.45-0.35 308.25-0.55 307.4-0.85L307.4-0.85Q306.4-0.35 305.78 0.53 305.15 1.4 305.15 2.4ZM352.4-24.95L352.4-24.95Q352.4-24.3 351.8-23.88 351.2-23.45 350.05-23.45L350.05-23.45Q348.95-23.45 348.3-23.88 347.65-24.3 347.65-24.95L347.65-24.95Q347.65-25.65 348.3-26.1 348.95-26.55 350.05-26.55L350.05-26.55Q351.2-26.55 351.8-26.1 352.4-25.65 352.4-24.95ZM360.35-1.1L360.35 0.05 340.8 0.05 340.8-1.1 349.95-1.1 349.95-16.65 340.8-16.65 340.8-17.85 351.2-17.85 351.2-1.1 360.35-1.1ZM394.65-4.4L395.2-3.4Q392.35-1.65 388.9-0.55 385.45 0.55 380.35 0.55L380.35 0.55Q376.3 0.55 373.03-0.53 369.75-1.6 367.8-3.63 365.85-5.65 365.85-8.5L365.85-8.5Q365.85-10.9 367.2-12.73 368.55-14.55 370.85-15.8 373.15-17.05 376-17.68 378.85-18.3 381.85-18.3L381.85-18.3Q387.55-18.3 391.03-16.78 394.5-15.25 394.5-12.45L394.5-12.45Q394.5-10.5 392.93-9.3 391.35-8.1 388.65-7.53 385.95-6.95 382.55-6.95L382.55-6.95Q378.55-6.95 374.8-7.65 371.05-8.35 367.2-9.6L367.2-9.6Q367.1-9.05 367.1-8.5L367.1-8.5Q367.1-6.15 368.82-4.38 370.55-2.6 373.55-1.63 376.55-0.65 380.35-0.6L380.35-0.6Q385.05-0.55 388.48-1.63 391.9-2.7 394.65-4.4L394.65-4.4ZM381.85-17.15L381.85-17.15Q378.6-17.15 375.63-16.38 372.65-15.6 370.45-14.15 368.25-12.7 367.45-10.6L367.45-10.6Q374.9-8.15 382.55-8.15L382.55-8.15Q385.55-8.15 387.98-8.58 390.4-9 391.82-9.95 393.25-10.9 393.25-12.45L393.25-12.45Q393.25-14.7 390.2-15.93 387.15-17.15 381.85-17.15ZM431.5-4.25L431.5-4.25Q431.5-1.75 428.4-0.6 425.3 0.55 419.95 0.55L419.95 0.55Q415.3 0.55 411.4-0.85 407.5-2.25 405.4-4.25L405.4-4.25 405.4 0.05 404.2 0.05 404.2-6.75Q405.95-4.6 408.52-3.23 411.1-1.85 414.13-1.2 417.15-0.55 420.2-0.55L420.2-0.55Q422.85-0.55 425.13-0.85 427.4-1.15 428.82-1.93 430.25-2.7 430.25-4.2L430.25-4.2Q430.25-5.5 429.02-6.25 427.8-7 425.05-7.45 422.3-7.9 417.7-8.15L417.7-8.15Q410.8-8.55 407.68-9.78 404.55-11 404.55-13.3L404.55-13.3Q404.55-15.55 407.18-16.93 409.8-18.3 415.45-18.3L415.45-18.3Q420.1-18.3 423.75-16.9 427.4-15.5 429.45-13.4L429.45-13.4 429.45-17.85 430.65-17.85 430.65-10.95Q427.9-14.2 423.93-15.7 419.95-17.2 415.2-17.2L415.2-17.2Q410.8-17.2 408.27-16.25 405.75-15.3 405.75-13.4L405.75-13.4Q405.75-11.65 408.45-10.73 411.15-9.8 417.7-9.4L417.7-9.4Q424.85-8.95 428.18-7.95 431.5-6.95 431.5-4.25Z" opacity="1" transform="matrix(1,0,0,1,0,0)" fill="#1a1a1a" class="slogan-text-1" data-fill-palette-color="secondary" id="text-1"></path></svg></g></svg></g></svg></g></svg></g><g></g></svg></g></svg></g></svg></g><g mask="url(#2e9a0ff5-38e2-408a-b73c-8fc1b6e89df2)"><g transform="matrix(2.1853832442067733, 0, 0, 2.1853832442067733, 58.988163992869886, 1.0000000000000142)"><svg xmlns="http://www.w3.org/2000/svg" xmlns:xlink="http://www.w3.org/1999/xlink" version="1.1" x="0" y="0" viewBox="0.5 8.1 127 112.2" enable-background="new 0 0 128 128" xml:space="preserve" height="112.2" width="127" class="icon-none" data-fill-palette-color="accent" id="none"><g fill="#dfa46d" data-fill-palette-color="accent"><path d="M9.8 52.7V63.1C9.8 63.5 10.1 63.9 10.6 63.9 11 63.9 11.4 63.6 11.4 63.1V52.7C11.4 52.3 11.1 51.9 10.6 51.9S9.8 52.2 9.8 52.7" fill="#dfa46d" data-fill-palette-color="accent"></path><path d="M10.6 70.6C11 70.6 11.4 70.3 11.4 69.8V66.4C11.4 66 11.1 65.6 10.6 65.6 10.2 65.6 9.8 65.9 9.8 66.4V69.8C9.8 70.3 10.1 70.6 10.6 70.6" fill="#dfa46d" data-fill-palette-color="accent"></path><path d="M121.7 47.4C121.7 47 121.4 46.6 120.9 46.6 120.5 46.6 120.1 46.9 120.1 47.4V57.8C120.1 58.2 120.4 58.6 120.9 58.6 121.3 58.6 121.7 58.3 121.7 57.8z" fill="#dfa46d" data-fill-palette-color="accent"></path><path d="M121 60.5C120.6 60.5 120.2 60.8 120.2 61.3V64.7C120.2 65.1 120.5 65.5 121 65.5 121.4 65.5 121.8 65.2 121.8 64.7V61.3C121.7 60.8 121.4 60.5 121 60.5" fill="#dfa46d" data-fill-palette-color="accent"></path><path d="M6.6 106C6.3 105.7 5.8 105.7 5.5 106S5.2 106.8 5.5 107.1L7 108.6C7.1 108.7 7.3 108.8 7.5 108.8S7.9 108.7 8 108.6C8.3 108.3 8.3 107.8 8 107.5z" fill="#dfa46d" data-fill-palette-color="accent"></path><path d="M11.3 110.7C11 110.4 10.5 110.4 10.2 110.7S9.9 111.5 10.2 111.8L11.7 113.3C11.8 113.4 12 113.5 12.2 113.5S12.6 113.4 12.7 113.3C13 113 13 112.5 12.7 112.2z" fill="#dfa46d" data-fill-palette-color="accent"></path><path d="M7 110.7L5.5 112.2C5.2 112.5 5.2 113 5.5 113.3 5.6 113.4 5.8 113.5 6 113.5S6.4 113.4 6.5 113.3L8 111.8C8.3 111.5 8.3 111 8 110.7S7.2 110.4 7 110.7" fill="#dfa46d" data-fill-palette-color="accent"></path><path d="M11.7 106L10.2 107.5C9.9 107.8 9.9 108.3 10.2 108.6 10.3 108.7 10.5 108.8 10.7 108.8S11.1 108.7 11.2 108.6L12.7 107.1C13 106.8 13 106.3 12.7 106S12 105.7 11.7 106" fill="#dfa46d" data-fill-palette-color="accent"></path><path d="M84.2 101.3C83.9 101 83.4 101 83.1 101.3S82.8 102.1 83.1 102.4L84.6 103.9C84.7 104 84.9 104.1 85.1 104.1S85.5 104 85.6 103.9C85.9 103.6 85.9 103.1 85.6 102.8z" fill="#dfa46d" data-fill-palette-color="accent"></path><path d="M88.9 106C88.6 105.7 88.1 105.7 87.8 106S87.5 106.8 87.8 107.1L89.3 108.6C89.4 108.7 89.6 108.8 89.8 108.8S90.2 108.7 90.3 108.6C90.6 108.3 90.6 107.8 90.3 107.5z" fill="#dfa46d" data-fill-palette-color="accent"></path><path d="M84.6 106L83.1 107.5C82.8 107.8 82.8 108.3 83.1 108.6 83.2 108.7 83.4 108.8 83.6 108.8S84 108.7 84.1 108.6L85.6 107.1C85.9 106.8 85.9 106.3 85.6 106 85.4 105.7 84.9 105.7 84.6 106" fill="#dfa46d" data-fill-palette-color="accent"></path><path d="M89.3 101.3L87.8 102.8C87.5 103.1 87.5 103.6 87.8 103.9 87.9 104 88.1 104.1 88.3 104.1S88.7 104 88.8 103.9L90.3 102.4C90.6 102.1 90.6 101.6 90.3 101.3 90.1 101 89.6 101 89.3 101.3" fill="#dfa46d" data-fill-palette-color="accent"></path><path d="M70.7 19.7C70.8 19.8 71 19.9 71.2 19.9S71.6 19.8 71.7 19.7C72 19.4 72 18.9 71.7 18.6L70.2 17.1C69.9 16.8 69.4 16.8 69.1 17.1S68.8 17.9 69.1 18.2z" fill="#dfa46d" data-fill-palette-color="accent"></path><path d="M75.4 24.4C75.5 24.5 75.7 24.6 75.9 24.6S76.3 24.5 76.4 24.4C76.7 24.1 76.7 23.6 76.4 23.3L74.9 21.8C74.6 21.5 74.1 21.5 73.8 21.8S73.5 22.6 73.8 22.9z" fill="#dfa46d" data-fill-palette-color="accent"></path><path d="M69.8 24.6C70 24.6 70.2 24.5 70.3 24.4L71.8 22.9C72.1 22.6 72.1 22.1 71.8 21.8S71 21.5 70.7 21.8L69.2 23.3C68.9 23.6 68.9 24.1 69.2 24.4 69.4 24.5 69.6 24.6 69.8 24.6" fill="#dfa46d" data-fill-palette-color="accent"></path><path d="M74.5 19.9C74.7 19.9 74.9 19.8 75 19.7L76.5 18.2C76.8 17.9 76.8 17.4 76.5 17.1S75.7 16.8 75.4 17.1L74 18.6C73.7 18.9 73.7 19.4 74 19.7 74.1 19.8 74.3 19.9 74.5 19.9" fill="#dfa46d" data-fill-palette-color="accent"></path><path d="M3.5 37.8C3.7 38 3.8 38.1 4 38.1S4.4 38 4.5 37.9C4.8 37.6 4.8 37.1 4.5 36.8L3 35.3C2.8 35 2.3 35 2 35.3S1.7 36.1 2 36.4z" fill="#dfa46d" data-fill-palette-color="accent"></path><path d="M7.8 40C7.5 39.7 7 39.7 6.7 40S6.4 40.8 6.7 41.1L8.2 42.6C8.3 42.7 8.5 42.8 8.7 42.8S9.1 42.7 9.2 42.6C9.5 42.3 9.5 41.8 9.2 41.5z" fill="#dfa46d" data-fill-palette-color="accent"></path><path d="M2 42.6C2.1 42.7 2.3 42.8 2.5 42.8S2.9 42.7 3 42.6L4.5 41.1C4.8 40.8 4.8 40.3 4.5 40S3.7 39.7 3.4 40L2 41.5C1.8 41.8 1.8 42.3 2 42.6" fill="#dfa46d" data-fill-palette-color="accent"></path><path d="M8.2 35.3L6.7 36.8C6.4 37.1 6.4 37.6 6.7 37.9 6.8 38 7 38.1 7.2 38.1S7.6 38 7.7 37.9L9.2 36.4C9.5 36.1 9.5 35.6 9.2 35.3 9 35 8.5 35 8.2 35.3" fill="#dfa46d" data-fill-palette-color="accent"></path><path d="M120.4 74.3C118.6 74.3 117.1 75.8 117.1 77.6S118.6 80.9 120.4 80.9 123.7 79.4 123.7 77.6 122.2 74.3 120.4 74.3M120.4 79.4C119.4 79.4 118.6 78.6 118.6 77.6S119.4 75.8 120.4 75.8 122.2 76.6 122.2 77.6 121.4 79.4 120.4 79.4" fill="#dfa46d" data-fill-palette-color="accent"></path><path d="M86.4 15.9C88.2 15.9 89.7 14.4 89.7 12.6S88.2 9.3 86.4 9.3 83.1 10.8 83.1 12.6C83 14.4 84.5 15.9 86.4 15.9M86.4 10.8C87.4 10.8 88.2 11.6 88.2 12.6S87.4 14.4 86.4 14.4 84.6 13.6 84.6 12.6 85.4 10.8 86.4 10.8" fill="#dfa46d" data-fill-palette-color="accent"></path><path d="M5.2 78.7C3.4 78.7 2 80.1 2 81.9S3.4 85.1 5.2 85.1 8.4 83.7 8.4 81.9 6.9 78.7 5.2 78.7M5.2 83.6C4.3 83.6 3.5 82.8 3.5 81.9S4.3 80.2 5.2 80.2 6.9 81 6.9 81.9 6.1 83.6 5.2 83.6" fill="#dfa46d" data-fill-palette-color="accent"></path><path d="M122.5 108.6H111.2C110.8 108.6 110.4 108.9 110.4 109.4 110.4 109.8 110.7 110.2 111.2 110.2H122.5C122.9 110.2 123.3 109.9 123.3 109.4 123.2 108.9 122.9 108.6 122.5 108.6" fill="#dfa46d" data-fill-palette-color="accent"></path><path d="M103.9 108.6C103.5 108.6 103.1 108.9 103.1 109.4 103.1 109.8 103.4 110.2 103.9 110.2H107.5C107.9 110.2 108.3 109.9 108.3 109.4 108.3 109 108 108.6 107.5 108.6z" fill="#dfa46d" data-fill-palette-color="accent"></path><path d="M111.7 112.4H103.8C103.4 112.4 103 112.7 103 113.2 103 113.6 103.3 114 103.8 114H111.7C112.1 114 112.5 113.7 112.5 113.2 112.5 112.8 112.1 112.4 111.7 112.4" fill="#dfa46d" data-fill-palette-color="accent"></path><path d="M117.6 112.4H115.1C114.7 112.4 114.3 112.7 114.3 113.2 114.3 113.6 114.6 114 115.1 114H117.6C118 114 118.4 113.7 118.4 113.2 118.4 112.8 118.1 112.4 117.6 112.4" fill="#dfa46d" data-fill-palette-color="accent"></path><path d="M8.6 17.2H19.9C20.3 17.2 20.7 16.9 20.7 16.4 20.7 16 20.4 15.6 19.9 15.6H8.6C8.2 15.6 7.8 15.9 7.8 16.4S8.2 17.2 8.6 17.2" fill="#dfa46d" data-fill-palette-color="accent"></path><path d="M1.3 17.2H4.9C5.3 17.2 5.7 16.9 5.7 16.4 5.7 16 5.4 15.6 4.9 15.6H1.3C0.9 15.6 0.5 15.9 0.5 16.4S0.8 17.2 1.3 17.2" fill="#dfa46d" data-fill-palette-color="accent"></path><path d="M9.1 19.6H1.3C0.9 19.6 0.5 19.9 0.5 20.4 0.5 20.8 0.8 21.2 1.3 21.2H9.2C9.6 21.2 10 20.9 10 20.4 9.9 19.9 9.5 19.6 9.1 19.6" fill="#dfa46d" data-fill-palette-color="accent"></path><path d="M15.8 20.3C15.8 19.9 15.5 19.5 15 19.5H12.5C12.1 19.5 11.7 19.8 11.7 20.3 11.7 20.7 12 21.1 12.5 21.1H15C15.5 21.1 15.8 20.7 15.8 20.3" fill="#dfa46d" data-fill-palette-color="accent"></path><path d="M34.7 108H23.5C23.1 108 22.7 108.3 22.7 108.8 22.7 109.2 23 109.6 23.5 109.6H34.8C35.2 109.6 35.6 109.3 35.6 108.8 35.5 108.3 35.2 108 34.7 108" fill="#dfa46d" data-fill-palette-color="accent"></path><path d="M42.1 108H38.5C38.1 108 37.7 108.3 37.7 108.8 37.7 109.2 38 109.6 38.5 109.6H42.1C42.5 109.6 42.9 109.3 42.9 108.8 42.8 108.3 42.5 108 42.1 108" fill="#dfa46d" data-fill-palette-color="accent"></path><path d="M42.1 104.1H34.2C33.8 104.1 33.4 104.4 33.4 104.9 33.4 105.3 33.7 105.7 34.2 105.7H42.1C42.5 105.7 42.9 105.4 42.9 104.9 42.8 104.5 42.5 104.1 42.1 104.1" fill="#dfa46d" data-fill-palette-color="accent"></path><path d="M30.8 105.6C31.2 105.6 31.6 105.3 31.6 104.8 31.6 104.4 31.3 104 30.8 104H28.3C27.9 104 27.5 104.3 27.5 104.8 27.5 105.2 27.8 105.6 28.3 105.6z" fill="#dfa46d" data-fill-palette-color="accent"></path><path d="M78.2 112.8H73.5L70.1 97H107.3C111 97 113.9 94 113.9 90.4V42C121.8 40.3 127.5 33.4 127.5 25.3 127.5 15.9 119.8 8.2 110.4 8.2S93.3 15.9 93.3 25.3C93.3 26.4 93.4 27.4 93.6 28.4H62.7V19.8C62.8 19.6 62.7 19.3 62.5 19.1L55.2 11.8C55.1 11.7 55.1 11.7 55 11.7H48.5C48.3 9.7 46.6 8.1 44.6 8.1S40.9 9.7 40.7 11.7H39.4C39.2 9.7 37.5 8.1 35.5 8.1S31.8 9.7 31.6 11.7H30.7C29.1 11.7 27.7 13 27.7 14.7V28.6H22.2C18.5 28.6 15.6 31.6 15.6 35.2V90.5C15.6 94.2 18.6 97.1 22.2 97.1H59.4L56 112.9H51.3C49.6 112.9 48.1 114.3 48.1 116.1V117.1C48.1 118.8 49.5 120.3 51.3 120.3H78.4C80.1 120.3 81.6 118.9 81.6 117.1V116.1C81.4 114.2 80 112.8 78.2 112.8M110.4 9.7C119 9.7 126 16.7 126 25.3 126 32.9 120.6 39.4 113.1 40.7 112.2 40.9 111.3 40.9 110.4 40.9 103.2 40.9 96.9 36 95.2 29 94.9 27.8 94.8 26.6 94.8 25.3 94.8 16.7 101.8 9.7 110.4 9.7M55.4 14.1L60.2 18.9H55.4zM44.5 9.5C45.7 9.5 46.7 10.4 46.9 11.6H42C42.3 10.3 43.3 9.5 44.5 9.5M35.4 9.5C36.6 9.5 37.6 10.4 37.8 11.6H32.9C33.2 10.3 34.2 9.5 35.4 9.5M29.1 14.5C29.1 13.7 29.8 13 30.6 13H37.7C37.3 13.8 36.5 14.4 35.5 14.4 35.1 14.4 34.7 14.7 34.7 15.2 34.7 15.6 35 16 35.5 16 37.3 16 38.8 14.8 39.3 13.1H46.9C46.5 13.9 45.7 14.5 44.7 14.5 44.3 14.5 43.9 14.8 43.9 15.3 43.9 15.7 44.2 16.1 44.7 16.1 46.5 16.1 48 14.9 48.5 13.2H54V19.8C54 20.2 54.3 20.6 54.8 20.6H61.4V54C61.4 54.8 60.7 55.5 59.9 55.5H30.5C29.7 55.5 29 54.8 29 54V14.5zM17 35.1C17 32.3 19.3 30 22.1 30H27.6V54C27.6 55.6 28.9 57 30.6 57H59.8C61.4 57 62.8 55.7 62.8 54V29.9H94C96.1 37.3 102.8 42.4 110.5 42.4 111.2 42.4 111.8 42.3 112.5 42.3V87.8H17zM22.1 95.5C19.3 95.5 17 93.2 17 90.4V89.4H112.5V90.4C112.5 93.2 110.2 95.5 107.4 95.5zM60.8 97H68.5L71.9 112.8H57.4zM79.9 116.9C79.9 117.8 79.2 118.5 78.3 118.5H51.2C50.3 118.5 49.6 117.8 49.6 116.9V115.9C49.6 115 50.3 114.3 51.2 114.3H78.2C79.1 114.3 79.8 115 79.8 115.9V116.9z" fill="#dfa46d" data-fill-palette-color="accent"></path><path d="M83.4 54.1C80.8 56.6 80.8 60.7 83.3 63.3 84.6 64.6 86.3 65.3 87.9 65.3S91.2 64.7 92.4 63.5C95 61 95 56.9 92.5 54.3 90.1 51.6 86 51.6 83.4 54.1M91.4 62.3C89.4 64.2 86.3 64.2 84.4 62.2S82.5 57.1 84.5 55.2 89.6 53.3 91.5 55.3C93.4 57.2 93.4 60.4 91.4 62.3" fill="#dfa46d" data-fill-palette-color="accent"></path><path d="M104.3 54.5C104.2 54.1 103.8 53.9 103.4 54L99 55C98.5 53.5 97.8 52.2 96.7 51L99.9 47.8C100.2 47.5 100.2 47 99.9 46.7S99.1 46.4 98.8 46.7L95.6 49.9C94.4 48.8 93 48.1 91.5 47.6L92.6 43.3C92.7 42.9 92.5 42.5 92.1 42.4S91.3 42.5 91.2 42.9L90.1 47.2C88.6 46.9 87.1 46.9 85.6 47.2L84.4 43C84.3 42.6 83.9 42.4 83.5 42.5S82.9 43 83 43.4L84.2 47.7C82.8 48.2 81.5 48.9 80.3 50L77.2 46.9C76.9 46.6 76.4 46.6 76.1 46.9S75.8 47.7 76.1 48L79.2 51.1C78.2 52.3 77.4 53.6 76.9 55.1L72.7 54C72.3 53.9 71.9 54.1 71.8 54.5S71.9 55.3 72.3 55.4L76.5 56.5C76.2 58 76.2 59.6 76.5 61.1L72.3 62.2C71.9 62.3 71.7 62.7 71.8 63.1 71.9 63.4 72.2 63.7 72.5 63.7H72.7L76.9 62.6C77.3 63.7 77.8 64.7 78.4 65.6L76.8 67.2C76.2 67 75.6 67.1 75.1 67.5L64.7 77.8C63.7 78.8 63.7 80.5 64.7 81.5L65.2 82C65.7 82.5 66.4 82.8 67 82.8 67.7 82.8 68.3 82.5 68.8 82L79.2 71.6C79.5 71.3 79.7 70.9 79.7 70.5 79.7 70.3 79.7 70.1 79.6 69.9L81.2 68.3C82.1 69 83.2 69.5 84.2 69.8L83.1 74C83 74.4 83.2 74.8 83.6 74.9H83.8C84.1 74.9 84.4 74.7 84.5 74.3L85.6 70.1C86.3 70.2 87.1 70.3 87.9 70.3S89.5 70.2 90.2 70.1L91.3 74.3C91.4 74.6 91.7 74.9 92 74.9H92.2C92.6 74.8 92.8 74.4 92.7 74L91.6 69.8C93 69.3 94.4 68.6 95.5 67.5L98.6 70.6C98.7 70.7 98.9 70.8 99.1 70.8S99.5 70.7 99.6 70.6C99.9 70.3 99.9 69.8 99.6 69.5L96.5 66.4C97.5 65.2 98.3 63.9 98.8 62.5L103.1 63.7H103.3C103.6 63.7 103.9 63.5 104 63.1S103.9 62.3 103.5 62.2L99.4 61C99.7 59.5 99.7 58 99.4 56.5L103.7 55.4C104.1 55.3 104.4 54.9 104.3 54.5M67.8 80.9C67.4 81.3 66.7 81.3 66.2 80.9L65.7 80.4C65.3 80 65.3 79.3 65.7 78.8L76.2 68.4 78.2 70.4zM78.6 68.7L77.9 68 79.3 66.6 80 67.3zM95 66C91 69.9 84.5 69.8 80.6 65.8S76.8 55.3 80.8 51.4 91.3 47.6 95.2 51.6 99.1 62.1 95 66" fill="#dfa46d" data-fill-palette-color="accent"></path><path d="M110.4 27.4H110.6L112.6 31.4C112.7 31.7 113 31.8 113.3 31.8 113.4 31.8 113.5 31.8 113.6 31.7 114 31.5 114.1 31.1 113.9 30.7L111.9 26.7 112 26.6C112 26.5 112.1 26.5 112.1 26.4 112.2 26.3 112.2 26.2 112.3 26 112.3 25.9 112.4 25.9 112.4 25.8 112.5 25.6 112.5 25.4 112.5 25.2V25.1L120.6 21.4C121 21.2 121.1 20.8 121 20.4 120.8 20 120.4 19.9 120 20L111.9 23.7C111.5 23.3 111 23.1 110.4 23.1 109.2 23.1 108.3 24 108.3 25.2 108.3 26.5 109.2 27.4 110.4 27.4" fill="#dfa46d" data-fill-palette-color="accent"></path><path d="M110.4 14.2C110.8 14.2 111.2 13.9 111.2 13.4V11.6C111.2 11.2 110.9 10.8 110.4 10.8 110 10.8 109.6 11.1 109.6 11.6V13.4C109.6 13.9 110 14.2 110.4 14.2" fill="#dfa46d" data-fill-palette-color="accent"></path><path d="M96.7 26.1H98.5C98.9 26.1 99.3 25.8 99.3 25.3 99.3 24.9 99 24.5 98.5 24.5H96.7C96.3 24.5 95.9 24.8 95.9 25.3 96 25.7 96.3 26.1 96.7 26.1" fill="#dfa46d" data-fill-palette-color="accent"></path><path d="M110.4 36.3C110 36.3 109.6 36.6 109.6 37.1V38.9C109.6 39.3 109.9 39.7 110.4 39.7 110.8 39.7 111.2 39.4 111.2 38.9V37.1C111.1 36.7 110.8 36.3 110.4 36.3" fill="#dfa46d" data-fill-palette-color="accent"></path><path d="M122.2 26.1H124C124.4 26.1 124.8 25.8 124.8 25.3 124.8 24.9 124.5 24.5 124 24.5H122.2C121.8 24.5 121.4 24.8 121.4 25.3 121.4 25.7 121.8 26.1 122.2 26.1" fill="#dfa46d" data-fill-palette-color="accent"></path><path d="M58.3 63.1H23.5C23.1 63.1 22.7 63.4 22.7 63.9 22.7 64.3 23 64.7 23.5 64.7H58.4C58.8 64.7 59.2 64.4 59.2 63.9 59.1 63.4 58.7 63.1 58.3 63.1" fill="#dfa46d" data-fill-palette-color="accent"></path><path d="M58.3 68.9H23.5C23.1 68.9 22.7 69.2 22.7 69.7 22.7 70.1 23 70.5 23.5 70.5H58.4C58.8 70.5 59.2 70.2 59.2 69.7 59.1 69.2 58.7 68.9 58.3 68.9" fill="#dfa46d" data-fill-palette-color="accent"></path><path d="M58.3 74.6H23.5C23.1 74.6 22.7 74.9 22.7 75.4 22.7 75.8 23 76.2 23.5 76.2H58.4C58.8 76.2 59.2 75.9 59.2 75.4 59.1 75 58.7 74.6 58.3 74.6" fill="#dfa46d" data-fill-palette-color="accent"></path><path d="M47.8 80.4H23.5C23.1 80.4 22.7 80.7 22.7 81.2 22.7 81.6 23 82 23.5 82H47.8C48.2 82 48.6 81.7 48.6 81.2 48.5 80.7 48.2 80.4 47.8 80.4" fill="#dfa46d" data-fill-palette-color="accent"></path><path d="M36.3 27.9H54C54.4 27.9 54.8 27.6 54.8 27.1 54.8 26.7 54.5 26.3 54 26.3H36.3C35.9 26.3 35.5 26.6 35.5 27.1S35.9 27.9 36.3 27.9" fill="#dfa46d" data-fill-palette-color="accent"></path><path d="M36.3 33.7H54C54.4 33.7 54.8 33.4 54.8 32.9 54.8 32.5 54.5 32.1 54 32.1H36.3C35.9 32.1 35.5 32.4 35.5 32.9S35.9 33.7 36.3 33.7" fill="#dfa46d" data-fill-palette-color="accent"></path><path d="M36.3 39.5H54C54.4 39.5 54.8 39.2 54.8 38.7 54.8 38.3 54.5 37.9 54 37.9H36.3C35.9 37.9 35.5 38.2 35.5 38.7 35.5 39.1 35.9 39.5 36.3 39.5" fill="#dfa46d" data-fill-palette-color="accent"></path><path d="M36.3 45.2H48.7C49.1 45.2 49.5 44.9 49.5 44.4 49.5 44 49.2 43.6 48.7 43.6H36.3C35.9 43.6 35.5 43.9 35.5 44.4S35.9 45.2 36.3 45.2" fill="#dfa46d" data-fill-palette-color="accent"></path></g></svg></g></g></svg></g><defs></defs></svg><rect width="395.52" height="247.2" fill="none" stroke="none" visibility="hidden"></rect></g></svg></g></svg>