<svg xmlns="http://www.w3.org/2000/svg" version="1.1" xmlns:xlink="http://www.w3.org/1999/xlink" xmlns:svgjs="http://svgjs.dev/svgjs" width="1500" height="473" viewBox="0 0 1500 473"><g transform="matrix(1,0,0,1,-0.9090909090909918,-1.7106704579896927)"><svg viewBox="0 0 396 125" data-background-color="#eeddee" preserveAspectRatio="xMidYMid meet" height="473" width="1500" xmlns="http://www.w3.org/2000/svg" xmlns:xlink="http://www.w3.org/1999/xlink"><g id="tight-bounds" transform="matrix(1,0,0,1,0.2400000000000091,0.45207993075837294)"><svg viewBox="0 0 395.52 124.09584013848325" height="124.09584013848325" width="395.52"><g><svg viewBox="0 0 671.0686347170908 210.55022758849697" height="124.09584013848325" width="395.52"><g transform="matrix(1,0,0,1,273.57103471709087,0)"><svg viewBox="0 0 397.4975999999999 210.55022758849697" height="210.55022758849697" width="397.4975999999999"><g id="textblocktransform"><svg viewBox="0 0 397.4975999999999 210.55022758849697" height="210.55022758849697" width="397.4975999999999" id="textblock"><g><rect width="397.4975999999999" height="10.664491844328726" x="0" y="130.81936791117573" fill="#6a704c" opacity="1" stroke-width="0" stroke="transparent" fill-opacity="1" class="rect-yte-0" data-fill-palette-color="primary" rx="1%" id="yte-0" data-palette-color="#6a704c"></rect></g><g transform="matrix(1,0,0,1,0.9887999999999693,0)"><svg viewBox="0 0 395.52 118.25648484848483" height="118.25648484848483" width="395.52"><g transform="matrix(1,0,0,1,0,0)"><svg width="395.52" viewBox="2.25 -43.6 181.26 54.2" height="118.25648484848483" data-palette-color="#6a704c"><path d="M2.25-3.39L2.25-21.61Q2.25-22.44 2.39-23.08 2.54-23.73 2.95-24.15 3.37-24.56 4.1-24.78 4.83-25 6.01-25L6.01-25 15.99-25Q17.09-25 17.85-24.78 18.6-24.56 18.95-24.02L18.95-24.02Q19.26-24.27 19.73-24.52 20.19-24.78 20.74-25 21.29-25.22 21.91-25.35 22.53-25.49 23.19-25.49L23.19-25.49Q25.44-25.49 26.71-24L26.71-24Q27.03-24.27 27.51-24.54 28-24.8 28.59-25.01 29.17-25.22 29.82-25.35 30.47-25.49 31.1-25.49L31.1-25.49Q33.45-25.49 34.75-23.88 36.06-22.27 36.06-19.14L36.06-19.14 36.06-1.15Q36.06-0.73 35.95-0.5 35.84-0.27 35.67-0.16 35.5-0.05 35.28-0.02 35.06 0 34.84 0L34.84 0 33.3 0Q32.67 0 32.48-0.37 32.3-0.73 32.3-1.15L32.3-1.15 32.3-19.38Q32.3-20.78 31.8-21.51 31.3-22.24 30.2-22.24L30.2-22.24Q29.91-22.24 29.59-22.13 29.27-22.02 28.97-21.86 28.66-21.7 28.41-21.52 28.15-21.34 27.98-21.17L27.98-21.17Q28.05-20.7 28.1-20.2 28.15-19.7 28.15-19.14L28.15-19.14 28.15-1.15Q28.15-0.73 28.04-0.5 27.93-0.27 27.77-0.16 27.61-0.05 27.39-0.02 27.17 0 26.95 0L26.95 0 25.39 0Q24.76 0 24.57-0.37 24.39-0.73 24.39-1.15L24.39-1.15 24.39-19.38Q24.39-20.78 23.89-21.51 23.39-22.24 22.29-22.24L22.29-22.24Q21.73-22.24 21.15-21.94 20.58-21.63 20.24-21.29L20.24-21.29 20.24-3.42Q20.24-2.56 20.09-1.93 19.95-1.29 19.53-0.87 19.12-0.44 18.38-0.22 17.65 0 16.48 0L16.48 0 6.01 0Q4.83 0 4.1-0.22 3.37-0.44 2.95-0.85 2.54-1.27 2.39-1.9 2.25-2.54 2.25-3.39L2.25-3.39ZM18.16-3.61L18.16-21.39Q18.16-22.24 17.71-22.6 17.26-22.95 16.26-22.95L16.26-22.95 16.26-2.05Q16.85-2.05 17.21-2.09 17.58-2.12 17.8-2.28 18.02-2.44 18.09-2.75 18.16-3.05 18.16-3.61L18.16-3.61ZM54.66 0.85L54.66 0.85Q52.83 0.85 51 0.56 49.17 0.27 47.5-0.37 45.82-1 44.38-2.03 42.94-3.05 41.88-4.54 40.82-6.03 40.21-8 39.6-9.96 39.6-12.5L39.6-12.5Q39.6-14.99 40.21-16.96 40.82-18.92 41.88-20.41 42.94-21.9 44.38-22.94 45.82-23.97 47.5-24.62 49.17-25.27 51-25.56 52.83-25.85 54.66-25.85L54.66-25.85Q56.35-25.85 58.12-25.65 59.89-25.44 61.56-24.89 63.23-24.34 64.71-23.4 66.18-22.46 67.29-21 68.41-19.53 69.05-17.49 69.7-15.45 69.7-12.7L69.7-12.7Q69.7-9.86 69.06-7.75 68.43-5.64 67.32-4.14 66.21-2.64 64.74-1.66 63.28-0.68 61.61-0.13 59.93 0.42 58.15 0.63 56.37 0.85 54.66 0.85ZM62.16-5L62.16-5Q62.91-5 63.66-5.33 64.4-5.66 64.98-6.52 65.55-7.37 65.9-8.87 66.26-10.38 66.26-12.7L66.26-12.7Q66.26-14.89 65.9-16.31 65.55-17.72 64.96-18.54 64.38-19.36 63.64-19.68 62.91-20 62.16-20L62.16-20Q61.57-20 60.85-19.75 60.13-19.51 59.51-18.71 58.88-17.92 58.47-16.44 58.05-14.97 58.05-12.5L58.05-12.5Q58.05-10.03 58.4-8.54 58.74-7.06 59.3-6.27 59.86-5.49 60.61-5.25 61.35-5 62.16-5ZM60.32-4.03L60.32-4.03Q59.52-4.17 58.74-4.59 57.96-5 57.35-5.94 56.74-6.88 56.36-8.46 55.98-10.03 55.98-12.5L55.98-12.5Q55.98-14.14 56.19-15.38 56.39-16.63 56.75-17.53 57.1-18.43 57.57-19.04 58.03-19.65 58.51-20.06 58.98-20.46 59.46-20.67 59.93-20.87 60.32-20.97L60.32-20.97Q59.47-20.97 58.37-20.59 57.27-20.21 56.3-19.26 55.32-18.31 54.65-16.66 53.98-15.01 53.98-12.5L53.98-12.5Q53.98-9.96 54.56-8.33 55.15-6.69 56.06-5.74 56.98-4.79 58.12-4.41 59.25-4.03 60.32-4.03ZM74.14-35.45L74.14-35.45Q74.14-37.13 74.79-38.62 75.43-40.11 76.53-41.21 77.63-42.31 79.12-42.96 80.61-43.6 82.29-43.6L82.29-43.6Q83.95-43.6 85.43-42.96 86.91-42.31 88.01-41.21 89.11-40.11 89.75-38.62 90.4-37.13 90.4-35.45L90.4-35.45Q90.4-33.79 89.75-32.31 89.11-30.83 88.01-29.74 86.91-28.64 85.43-27.99 83.95-27.34 82.29-27.34L82.29-27.34Q80.61-27.34 79.12-27.99 77.63-28.64 76.53-29.74 75.43-30.83 74.79-32.31 74.14-33.79 74.14-35.45ZM67.7 8.2L67.7 6.4Q67.7 6.08 67.79 5.99 67.89 5.91 68.04 5.91L68.04 5.91Q68.18 5.91 68.34 5.96 68.5 6.01 68.73 6.05 68.96 6.1 69.31 6.15 69.65 6.2 70.19 6.2L70.19 6.2Q73.24 6.2 73.24 2.42L73.24 2.42 73.24-21.61Q73.24-22.17 73.32-22.77 73.41-23.36 73.76-23.86 74.12-24.37 74.82-24.68 75.53-25 76.8-25L76.8-25 87.47-25Q88.64-25 89.37-24.78 90.11-24.56 90.52-24.13 90.94-23.71 91.08-23.07 91.23-22.44 91.23-21.58L91.23-21.58 91.23-2.66Q91.23 0.27 90.58 2.4 89.94 4.54 88.85 6.01 87.76 7.47 86.34 8.37 84.91 9.28 83.34 9.78 81.78 10.28 80.17 10.44 78.56 10.6 77.12 10.6L77.12 10.6Q73.9 10.6 71.72 10.17 69.55 9.74 68.13 8.98L68.13 8.98Q68.01 8.94 67.85 8.78 67.7 8.62 67.7 8.2L67.7 8.2ZM89.16-3.03L89.16-21.39Q89.16-21.92 89.08-22.24 89.01-22.56 88.79-22.72 88.57-22.88 88.2-22.91 87.84-22.95 87.25-22.95L87.25-22.95 87.25-2.22Q87.25-1.07 87.21-0.01 87.18 1.05 87.04 2.1 86.91 3.15 86.62 4.2 86.32 5.25 85.81 6.35L85.81 6.35Q86.74 5.57 87.37 4.64 88.01 3.71 88.41 2.58 88.81 1.44 88.98 0.06 89.16-1.32 89.16-3.03L89.16-3.03ZM86.32-35.45L86.32-35.45Q86.32-33.74 85.65-32.23 84.98-30.71 83.83-29.59L83.83-29.59Q84.81-29.83 85.63-30.4 86.45-30.96 87.04-31.73 87.64-32.5 87.98-33.45 88.33-34.4 88.33-35.45L88.33-35.45Q88.33-36.5 87.98-37.45 87.64-38.4 87.04-39.17 86.45-39.94 85.63-40.49 84.81-41.04 83.83-41.31L83.83-41.31Q84.98-40.19 85.65-38.67 86.32-37.16 86.32-35.45ZM96.62-35.45L96.62-35.45Q96.62-37.13 97.27-38.62 97.92-40.11 99.02-41.21 100.11-42.31 101.6-42.96 103.09-43.6 104.78-43.6L104.78-43.6Q106.44-43.6 107.91-42.96 109.39-42.31 110.49-41.21 111.59-40.11 112.24-38.62 112.88-37.13 112.88-35.45L112.88-35.45Q112.88-33.79 112.24-32.31 111.59-30.83 110.49-29.74 109.39-28.64 107.91-27.99 106.44-27.34 104.78-27.34L104.78-27.34Q103.09-27.34 101.6-27.99 100.11-28.64 99.02-29.74 97.92-30.83 97.27-32.31 96.62-33.79 96.62-35.45ZM90.18 8.2L90.18 6.4Q90.18 6.08 90.28 5.99 90.37 5.91 90.52 5.91L90.52 5.91Q90.67 5.91 90.83 5.96 90.98 6.01 91.22 6.05 91.45 6.1 91.79 6.15 92.13 6.2 92.67 6.2L92.67 6.2Q95.72 6.2 95.72 2.42L95.72 2.42 95.72-21.61Q95.72-22.17 95.81-22.77 95.89-23.36 96.24-23.86 96.6-24.37 97.31-24.68 98.01-25 99.28-25L99.28-25 109.95-25Q111.13-25 111.86-24.78 112.59-24.56 113.01-24.13 113.42-23.71 113.57-23.07 113.71-22.44 113.71-21.58L113.71-21.58 113.71-2.66Q113.71 0.27 113.07 2.4 112.42 4.54 111.33 6.01 110.25 7.47 108.82 8.37 107.39 9.28 105.83 9.78 104.26 10.28 102.65 10.44 101.04 10.6 99.6 10.6L99.6 10.6Q96.38 10.6 94.21 10.17 92.03 9.74 90.62 8.98L90.62 8.98Q90.5 8.94 90.34 8.78 90.18 8.62 90.18 8.2L90.18 8.2ZM111.64-3.03L111.64-21.39Q111.64-21.92 111.56-22.24 111.49-22.56 111.27-22.72 111.05-22.88 110.69-22.91 110.32-22.95 109.73-22.95L109.73-22.95 109.73-2.22Q109.73-1.07 109.7-0.01 109.66 1.05 109.53 2.1 109.39 3.15 109.1 4.2 108.81 5.25 108.29 6.35L108.29 6.35Q109.22 5.57 109.86 4.64 110.49 3.71 110.89 2.58 111.3 1.44 111.47 0.06 111.64-1.32 111.64-3.03L111.64-3.03ZM108.81-35.45L108.81-35.45Q108.81-33.74 108.13-32.23 107.46-30.71 106.32-29.59L106.32-29.59Q107.29-29.83 108.11-30.4 108.93-30.96 109.53-31.73 110.12-32.5 110.47-33.45 110.81-34.4 110.81-35.45L110.81-35.45Q110.81-36.5 110.47-37.45 110.12-38.4 109.53-39.17 108.93-39.94 108.11-40.49 107.29-41.04 106.32-41.31L106.32-41.31Q107.46-40.19 108.13-38.67 108.81-37.16 108.81-35.45ZM141.45 0L128.41 0Q127.09 0 125.76-0.17 124.43-0.34 123.22-0.72 122.01-1.1 120.96-1.71 119.91-2.32 119.14-3.22 118.37-4.13 117.93-5.35 117.49-6.57 117.49-8.15L117.49-8.15Q117.49-10.28 118.3-11.79 119.11-13.31 120.46-14.31 121.82-15.31 123.57-15.84 125.33-16.38 127.21-16.53L127.21-16.53 127.21-18.21Q127.21-19.17 126.97-19.73 126.72-20.29 126.34-20.57 125.97-20.85 125.51-20.94 125.06-21.02 124.65-21.02L124.65-21.02Q124.16-21.02 123.61-20.87 123.06-20.73 122.55-20.52 122.04-20.31 121.57-20.07 121.11-19.82 120.79-19.63L120.79-19.63Q120.64-19.53 120.52-19.46 120.4-19.38 120.28-19.38L120.28-19.38Q120.06-19.38 119.86-19.7L119.86-19.7 119.03-21.02Q118.91-21.19 118.91-21.39L118.91-21.39Q118.91-21.58 119.07-21.73 119.23-21.88 119.37-21.97L119.37-21.97Q120.18-22.53 121.43-23.12 122.67-23.71 124.22-24.17 125.77-24.63 127.58-24.93 129.38-25.22 131.31-25.22L131.31-25.22Q133.14-25.22 134.89-25.1 136.64-24.98 138.19-24.57 139.74-24.17 141.02-23.43 142.3-22.68 143.24-21.46 144.18-20.24 144.69-18.46 145.2-16.67 145.2-14.18L145.2-14.18 145.2-3.3Q145.2-2.49 145.06-1.87 144.91-1.25 144.5-0.83 144.08-0.42 143.35-0.21 142.62 0 141.45 0L141.45 0ZM127.21-3.13L127.21-13.43Q125.45-13.43 124.26-12.99 123.06-12.55 122.33-11.82 121.6-11.08 121.28-10.12 120.96-9.16 120.96-8.13L120.96-8.13Q120.96-7.1 121.28-6.19 121.6-5.27 122.33-4.59 123.06-3.91 124.26-3.52 125.45-3.13 127.21-3.13L127.21-3.13ZM141.23-14.82L141.23-2.05Q141.81-2.05 142.18-2.09 142.54-2.12 142.76-2.28 142.98-2.44 143.06-2.75 143.13-3.05 143.13-3.61L143.13-3.61 143.13-14.72Q143.13-16.7 142.71-18.05 142.3-19.41 141.68-20.28 141.05-21.14 140.32-21.59 139.59-22.05 138.95-22.27L138.95-22.27Q139.25-21.95 139.65-21.36 140.05-20.78 140.4-19.87 140.74-18.97 140.98-17.71 141.23-16.46 141.23-14.82L141.23-14.82ZM149.69-3.39L149.69-21.61Q149.69-22.44 149.84-23.08 149.99-23.73 150.4-24.15 150.82-24.56 151.55-24.78 152.28-25 153.45-25L153.45-25 163.44-25Q164.54-25 165.3-24.78 166.05-24.56 166.39-24.02L166.39-24.02Q166.71-24.27 167.18-24.52 167.64-24.78 168.19-25 168.74-25.22 169.36-25.35 169.98-25.49 170.64-25.49L170.64-25.49Q172.89-25.49 174.16-24L174.16-24Q174.47-24.27 174.96-24.54 175.45-24.8 176.04-25.01 176.62-25.22 177.27-25.35 177.92-25.49 178.55-25.49L178.55-25.49Q180.9-25.49 182.2-23.88 183.51-22.27 183.51-19.14L183.51-19.14 183.51-1.15Q183.51-0.73 183.4-0.5 183.29-0.27 183.12-0.16 182.95-0.05 182.73-0.02 182.51 0 182.29 0L182.29 0 180.75 0Q180.11 0 179.93-0.37 179.75-0.73 179.75-1.15L179.75-1.15 179.75-19.38Q179.75-20.78 179.25-21.51 178.75-22.24 177.65-22.24L177.65-22.24Q177.36-22.24 177.04-22.13 176.72-22.02 176.42-21.86 176.11-21.7 175.85-21.52 175.6-21.34 175.43-21.17L175.43-21.17Q175.5-20.7 175.55-20.2 175.6-19.7 175.6-19.14L175.6-19.14 175.6-1.15Q175.6-0.73 175.49-0.5 175.38-0.27 175.22-0.16 175.06-0.05 174.84-0.02 174.62 0 174.4 0L174.4 0 172.84 0Q172.2 0 172.02-0.37 171.84-0.73 171.84-1.15L171.84-1.15 171.84-19.38Q171.84-20.78 171.34-21.51 170.84-22.24 169.74-22.24L169.74-22.24Q169.18-22.24 168.6-21.94 168.03-21.63 167.69-21.29L167.69-21.29 167.69-3.42Q167.69-2.56 167.54-1.93 167.39-1.29 166.98-0.87 166.56-0.44 165.83-0.22 165.1 0 163.93 0L163.93 0 153.45 0Q152.28 0 151.55-0.22 150.82-0.44 150.4-0.85 149.99-1.27 149.84-1.9 149.69-2.54 149.69-3.39L149.69-3.39ZM165.61-3.61L165.61-21.39Q165.61-22.24 165.16-22.6 164.71-22.95 163.71-22.95L163.71-22.95 163.71-2.05Q164.29-2.05 164.66-2.09 165.03-2.12 165.25-2.28 165.47-2.44 165.54-2.75 165.61-3.05 165.61-3.61L165.61-3.61Z" opacity="1" transform="matrix(1,0,0,1,0,0)" fill="#6a704c" class="wordmark-text-0" data-fill-palette-color="primary" id="text-0"></path></svg></g></svg></g><g transform="matrix(1,0,0,1,0,154.04674281819536)"><svg viewBox="0 0 232.209792 56.503484770301625" height="56.503484770301625" width="232.209792"><g transform="matrix(1,0,0,1,0,0)"><svg width="232.209792" viewBox="2.8 -26.55 172.36999999999998 41.95" height="56.503484770301625" data-palette-color="#6a704c"><path d="M6.65 0.85L6.65 0.85Q2.8 0 2.8-2.65L2.8-2.65Q2.8-3.4 3.05-4.42 3.3-5.45 3.85-6.7L3.85-6.7 8.1-16.25Q7.35-16.15 6.45-16.05 5.55-15.95 4.45-15.85L4.45-15.85Q4.25-15.85 4.25-16.2L4.25-16.2Q4.25-16.9 4.5-17L4.5-17 8.7-17.6 11.95-24.2Q12.4-25.1 14.75-25.1L14.75-25.1Q15.85-25.1 15.7-24.85L15.7-24.85Q14.6-23.1 13.48-21.33 12.35-19.55 11.25-17.8L11.25-17.8Q11.4-17.85 11.9-17.9 12.4-17.95 13.2-18L13.2-18Q13.8-18.05 14.35-18.07 14.9-18.1 15.4-18.1L15.4-18.1Q17.5-18.1 17.4-17.9L17.4-17.9Q17.05-17.55 10.6-16.55L10.6-16.55Q5.15-6.25 5.15-2L5.15-2Q5.15-0.45 6.05-0.15L6.05-0.15Q6.75 0.05 9.6-2L9.6-2Q11.25-3.2 12.6-4.63 13.95-6.05 15.05-7.65L15.05-7.65Q15.4-8.15 15.7-8.15L15.7-8.15Q15.9-8.15 15.9-7.95L15.9-7.95Q15.9-7.75 15.65-7.35L15.65-7.35Q13.75-4.3 10.6-1.6L10.6-1.6Q7.55 1.05 6.65 0.85ZM16.85 0.4L16.85 0.4Q15.4 0.4 14.3-0.3L14.3-0.3Q12.85-1.3 12.85-3.2L12.85-3.2Q12.85-5.25 14.6-8.2L14.6-8.2Q16.95-12.05 21.5-14.95L21.5-14.95Q22.65-15.7 23.8-15.7L23.8-15.7Q25.3-15.7 25.95-14.75L25.95-14.75Q26.35-14.2 26.35-13.5L26.35-13.5Q26.35-11.4 22.95-8.9L22.95-8.9Q21.95-8.2 20.82-7.63 19.7-7.05 18.4-6.8L18.4-6.8 16.25-6.35Q15.05-4.2 15.05-2.75L15.05-2.75Q15.05-0.75 17.4-0.75L17.4-0.75Q19.25-0.75 21.9-2.3L21.9-2.3Q25.45-4.35 28-8L28-8Q28.4-8.6 28.75-8.6L28.75-8.6Q28.9-8.6 28.9-8.4L28.9-8.4Q28.9-8.15 28.55-7.65L28.55-7.65Q23.7-0.35 17.6 0.35L17.6 0.35Q17.4 0.4 17.22 0.4 17.05 0.4 16.85 0.4ZM16.85-7.2L16.85-7.2Q18.25-7.2 20.45-8.45L20.45-8.45Q23.55-10.2 24.8-12.95L24.8-12.95Q25.15-13.65 25.15-14.1L25.15-14.1Q25.15-14.55 24.8-14.55L24.8-14.55Q24.15-14.55 22.15-12.95L22.15-12.95Q20.7-11.7 19.32-10.28 17.95-8.85 16.7-7.25L16.7-7.25Q16.65-7.2 16.85-7.2ZM31.3 0.4L31.3 0.4Q30.25 0.4 29.17-0.1 28.1-0.6 27.35-1.63 26.6-2.65 26.6-4.1L26.6-4.1Q26.6-6.1 28.1-8.65 29.6-11.2 32.05-13.15L32.05-13.15Q33.59-14.4 34.65-14.85L34.65-14.85Q36.15-15.5 37.5-15.5L37.5-15.5Q39.2-15.5 40.15-14.4L40.15-14.4Q40.65-13.9 40.65-13.35L40.65-13.35Q40.65-12.45 39.8-12.45L39.8-12.45Q39.2-12.45 38.9-13.2L38.9-13.2Q38.55-14.25 37.4-14.25L37.4-14.25Q36-14.25 34.25-12.7L34.25-12.7Q32.3-11.15 30.7-8.45L30.7-8.45Q28.95-5.55 28.95-3.35L28.95-3.35Q28.95-1.2 30.25-0.65L30.25-0.65Q30.7-0.45 31.4-0.45L31.4-0.45Q33.8-0.45 36.84-2.45L36.84-2.45Q40.2-4.6 42.59-8L42.59-8Q43.15-8.75 43.59-8.75L43.59-8.75Q43.75-8.75 43.75-8.65L43.75-8.65Q43.75-8.4 43.3-7.7L43.3-7.7Q41-4.15 36.84-1.6L36.84-1.6Q34.95-0.45 33.82-0.03 32.7 0.4 31.3 0.4ZM51.44 0.5L51.44 0.5Q50.34 0.6 49.34-0.08 48.34-0.75 48.34-1.6L48.34-1.6Q48.34-3.15 51.29-7.55L51.29-7.55Q54.54-12.45 54.54-13.2L54.54-13.2Q54.54-13.65 54.04-13.65L54.04-13.65Q52.74-13.65 49.04-9.8L49.04-9.8Q46.84-7.6 44.92-5.08 42.99-2.55 41.29 0.25L41.29 0.25Q41.19 0.35 40.74 0.35L40.74 0.35Q38.54 0.35 38.74-0.25L38.74-0.25Q39.59-2.55 40.89-5.4 42.19-8.25 43.99-11.75L43.99-11.75Q49.94-23.25 52.09-24.9L52.09-24.9Q52.69-25.35 53.74-25.35L53.74-25.35Q55.49-25.35 55.49-24.65L55.49-24.65Q55.49-24.5 55.19-24.25L55.19-24.25Q48.64-19.4 43.59-6L43.59-6Q43.64-6.05 44.12-6.48 44.59-6.9 45.49-7.75L45.49-7.75Q46.44-8.6 47.12-9.33 47.79-10.05 48.29-10.6L48.29-10.6Q50.74-13.35 53.69-14.7L53.69-14.7Q54.39-15 55.29-15L55.29-15Q57.34-15 57.34-13.5L57.34-13.5Q57.34-12.55 56.39-11.25L56.39-11.25Q50.99-3.7 50.99-1.1L50.99-1.1Q50.99-0.55 51.34-0.4L51.34-0.4Q52.14-0.05 55.29-2.05L55.29-2.05Q58.99-4.45 61.59-8L61.59-8Q62.14-8.75 62.59-8.75L62.59-8.75Q62.74-8.75 62.74-8.65L62.74-8.65Q62.74-8.4 62.29-7.7L62.29-7.7Q60.09-4.25 56.19-1.6L56.19-1.6Q52.69 0.7 51.44 0.5ZM70.74 0.5L70.74 0.5Q69.64 0.6 68.64-0.08 67.64-0.75 67.64-1.6L67.64-1.6Q67.64-3.15 70.59-7.55L70.59-7.55Q73.84-12.4 73.84-13.15L73.84-13.15Q73.84-13.6 73.39-13.65L73.39-13.65Q71.94-13.55 68.89-10.75L68.89-10.75Q64.54-6.7 60.74 0.25L60.74 0.25Q60.64 0.35 60.19 0.35L60.19 0.35Q58.04 0.35 58.24-0.25L58.24-0.25Q58.79-1.7 60.17-4.6 61.54-7.5 63.74-11.9L63.74-11.9Q65.24-14.85 66.79-14.85L66.79-14.85Q67.29-14.85 67.44-14.6L67.44-14.6Q67.54-14.45 65.34-10.3L65.34-10.3Q64.29-8.3 63.69-7.13 63.09-5.95 62.84-5.6L62.84-5.6Q63.69-6.45 64.87-7.7 66.04-8.95 67.59-10.6L67.59-10.6Q70.04-13.35 72.99-14.7L72.99-14.7Q73.69-15 74.59-15L74.59-15Q76.64-15 76.64-13.5L76.64-13.5Q76.64-12.55 75.69-11.25L75.69-11.25Q70.29-3.7 70.29-1.1L70.29-1.1Q70.29-0.55 70.64-0.4L70.64-0.4Q71.44-0.05 74.59-2.05L74.59-2.05Q78.29-4.45 80.89-8L80.89-8Q81.44-8.75 81.89-8.75L81.89-8.75Q82.04-8.75 82.04-8.65L82.04-8.65Q82.04-8.4 81.59-7.7L81.59-7.7Q79.39-4.25 75.49-1.6L75.49-1.6Q71.99 0.7 70.74 0.5ZM82.59 0.55L82.59 0.55Q78.94 0.55 78.94-3.95L78.94-3.95Q78.94-8.45 82.54-12.55L82.54-12.55Q82.59-12.6 82.49-12.93 82.39-13.25 82.39-13.4L82.39-13.4Q82.39-13.7 82.59-13.85L82.59-13.85Q84.34-15.25 86.69-15.25L86.69-15.25Q87.34-15.25 87.74-15L87.74-15Q88.24-14.8 88.69-14.6 89.14-14.4 89.54-14.15L89.54-14.15Q91.44-13 92.19-11.75L92.19-11.75Q93.44-11.8 94.29-11.85 95.14-11.9 95.59-11.95L95.59-11.95 95.79-11.95Q96.24-11.95 96.24-11.6L96.24-11.6Q96.24-11.5 96.04-11.45L96.04-11.45Q95.49-11.35 94.61-11.2 93.74-11.05 92.49-10.9L92.49-10.9Q92.64-10.55 92.64-10.1L92.64-10.1Q92.64-9.75 92.59-9.6L92.59-9.6Q91.84-5.55 88.64-2.5L88.64-2.5Q85.54 0.55 82.59 0.55ZM90.99-11.75L90.99-11.75Q90.19-13 87.84-13L87.84-13Q86.04-13 85.49-12.6L85.49-12.6Q85.34-12.55 85.19-12.4 85.04-12.25 84.84-12.05L84.84-12.05Q87.64-11.7 90.99-11.75ZM82.74-0.25L82.74-0.25Q84.94-0.25 87.79-3.4L87.79-3.4Q90.69-6.55 91.24-9.5L91.24-9.5Q91.29-9.75 91.31-9.93 91.34-10.1 91.34-10.25L91.34-10.25Q91.34-10.55 91.24-10.85L91.24-10.85Q90.29-10.8 89.29-10.8 88.29-10.8 87.29-10.8L87.29-10.8Q86.29-10.8 85.46-10.8 84.64-10.8 83.99-10.85L83.99-10.85Q81.99-8.15 81.49-6.5L81.49-6.5Q80.89-4.65 80.89-2.95L80.89-2.95Q80.89-0.25 82.74-0.25ZM98.09 0.95L98.09 0.95Q94.54 0.2 94.54-2.35L94.54-2.35Q94.54-3.85 95.49-6.7L95.49-6.7Q96.19-8.85 97.41-11.63 98.64-14.4 100.49-17.8L100.49-17.8Q104.94-26.15 107.24-26.5L107.24-26.5Q107.44-26.55 107.89-26.55L107.89-26.55Q110.34-26.55 110.34-24.25L110.34-24.25Q110.34-21.1 105.04-15.3L105.04-15.3Q102.09-12 98.54-9.45L98.54-9.45Q96.44-4.45 96.44-2.1L96.44-2.1Q96.44-0.55 97.39-0.25L97.39-0.25Q98.14-0.05 100.89-2.05L100.89-2.05Q104.04-4.35 106.29-7.65L106.29-7.65Q106.64-8.15 106.94-8.15L106.94-8.15Q107.14-8.15 107.14-7.95L107.14-7.95Q107.14-7.75 106.89-7.35L106.89-7.35Q104.99-4.3 101.94-1.55L101.94-1.55Q98.99 1.15 98.09 0.95ZM99.09-10.8L99.09-10.8Q100.89-12.15 102.09-13.5L102.09-13.5 105.04-17Q109.14-21.85 109.14-24.15L109.14-24.15Q109.14-24.6 108.64-24.6L108.64-24.6Q107.79-24.6 105.94-22.15L105.94-22.15Q105.39-21.35 104.79-20.6 104.19-19.85 103.59-19.05L103.59-19.05Q102.84-17.95 102.21-16.9 101.59-15.85 101.04-14.75L101.04-14.75Q100.89-14.55 100.41-13.55 99.94-12.55 99.09-10.8ZM108.38 0.55L108.38 0.55Q104.73 0.55 104.73-3.95L104.73-3.95Q104.73-8.45 108.33-12.55L108.33-12.55Q108.38-12.6 108.28-12.93 108.18-13.25 108.18-13.4L108.18-13.4Q108.18-13.7 108.38-13.85L108.38-13.85Q110.13-15.25 112.48-15.25L112.48-15.25Q113.13-15.25 113.53-15L113.53-15Q114.03-14.8 114.48-14.6 114.93-14.4 115.33-14.15L115.33-14.15Q117.23-13 117.98-11.75L117.98-11.75Q119.23-11.8 120.08-11.85 120.93-11.9 121.38-11.95L121.38-11.95 121.58-11.95Q122.03-11.95 122.03-11.6L122.03-11.6Q122.03-11.5 121.83-11.45L121.83-11.45Q121.28-11.35 120.41-11.2 119.53-11.05 118.28-10.9L118.28-10.9Q118.43-10.55 118.43-10.1L118.43-10.1Q118.43-9.75 118.38-9.6L118.38-9.6Q117.63-5.55 114.43-2.5L114.43-2.5Q111.33 0.55 108.38 0.55ZM116.78-11.75L116.78-11.75Q115.98-13 113.63-13L113.63-13Q111.83-13 111.28-12.6L111.28-12.6Q111.13-12.55 110.98-12.4 110.83-12.25 110.63-12.05L110.63-12.05Q113.43-11.7 116.78-11.75ZM108.53-0.25L108.53-0.25Q110.73-0.25 113.58-3.4L113.58-3.4Q116.48-6.55 117.03-9.5L117.03-9.5Q117.08-9.75 117.11-9.93 117.13-10.1 117.13-10.25L117.13-10.25Q117.13-10.55 117.03-10.85L117.03-10.85Q116.08-10.8 115.08-10.8 114.08-10.8 113.08-10.8L113.08-10.8Q112.08-10.8 111.26-10.8 110.43-10.8 109.78-10.85L109.78-10.85Q107.78-8.15 107.28-6.5L107.28-6.5Q106.68-4.65 106.68-2.95L106.68-2.95Q106.68-0.25 108.53-0.25ZM117.43 15.4L117.43 15.4Q115.53 15.4 115.53 13.5L115.53 13.5Q115.53 11.95 116.88 9.8L116.88 9.8Q117.73 8.45 119.06 6.93 120.38 5.4 122.23 3.7L122.23 3.7Q125.53 0.5 129.23-1.85L129.23-1.85Q129.68-2.95 130.23-4.55 130.78-6.15 131.48-8.35L131.48-8.35Q131.33-8 130.41-6.93 129.48-5.85 127.73-3.95L127.73-3.95Q123.53 0.7 121.78 0.25L121.78 0.25Q119.08-0.45 119.08-2.75L119.08-2.75Q119.08-5 121.73-8.65L121.73-8.65Q122.48-9.65 123.58-10.65 124.68-11.65 126.08-12.6L126.08-12.6Q129.63-15.05 132.78-15.05L132.78-15.05Q134.73-15.05 136.33-14.05L136.33-14.05Q136.78-13.75 136.78-13.3L136.78-13.3Q136.78-12.85 136.58-12.85L136.58-12.85Q136.53-12.85 136.48-12.9L136.48-12.9Q135.48-14.05 133.73-14.05L133.73-14.05Q131.68-14.05 129.13-12.5 126.58-10.95 124.43-8.35L124.43-8.35Q121.08-4.25 121.08-1.95L121.08-1.95Q121.08-0.9 121.88-0.55L121.88-0.55Q122.98-0.1 127.43-5L127.43-5Q129.18-6.95 130.46-8.5 131.73-10.05 132.48-11.15L132.48-11.15Q132.83-11.65 133.48-11.65L133.48-11.65Q134.68-11.65 134.68-10.75L134.68-10.75Q134.68-10.55 134.53-10.3L134.53-10.3Q134.18-9.3 133.58-7.63 132.98-5.95 132.13-3.6L132.13-3.6Q133.73-4.55 134.68-4.55L134.68-4.55Q135.08-4.55 135.08-4.35L135.08-4.35Q135.08-3.85 133.83-3.4L133.83-3.4Q133.33-3.2 132.76-2.95 132.18-2.7 131.53-2.35L131.53-2.35Q128.03 6.35 123.08 12L123.08 12Q120.08 15.4 117.43 15.4ZM118.48 14.35L118.48 14.35Q119.43 14.35 120.78 12.8L120.78 12.8Q125.23 7.8 128.58-0.3L128.58-0.3Q121.93 4.65 118.68 10L118.68 10Q117.58 11.75 117.58 13.1L117.58 13.1Q117.58 14.35 118.48 14.35ZM147.33-17.55L147.33-17.55Q146.53-17.45 145.6-17.75 144.68-18.05 144.68-18.5L144.68-18.5Q144.68-18.8 144.88-19.13 145.08-19.45 145.38-19.8L145.38-19.8Q146.23-20.85 146.38-21.13 146.53-21.4 146.93-21.4L146.93-21.4Q148.08-21.4 148.73-20.3L148.73-20.3Q148.78-20.25 148.78-20.1L148.78-20.1Q148.78-19.65 148.28-18.8L148.28-18.8Q147.63-17.6 147.33-17.55ZM139.78 0.5L139.78 0.5Q136.88-0.15 136.88-1.8L136.88-1.8Q136.88-2.6 138.83-7.45L138.83-7.45Q139.38-8.4 140.3-10.23 141.23-12.05 142.63-14.7L142.63-14.7Q142.88-15.1 143.73-15.1L143.73-15.1Q144.48-15.1 145.2-14.88 145.93-14.65 145.78-14.45L145.78-14.45Q139.18-5.1 139.18-1.5L139.18-1.5Q139.18-0.45 139.88-0.45L139.88-0.45Q141.23-0.45 144.13-2.35L144.13-2.35Q147.58-4.7 149.93-8L149.93-8Q150.43-8.8 150.93-8.8L150.93-8.8Q151.08-8.8 151.08-8.65L151.08-8.65Q151.08-8.4 150.63-7.7L150.63-7.7Q148.43-4.25 144.53-1.6L144.53-1.6Q141.03 0.8 139.78 0.5ZM151.63 0.4L151.63 0.4Q150.18 0.4 149.08-0.3L149.08-0.3Q147.63-1.3 147.63-3.2L147.63-3.2Q147.63-5.25 149.38-8.2L149.38-8.2Q151.73-12.05 156.28-14.95L156.28-14.95Q157.43-15.7 158.58-15.7L158.58-15.7Q160.08-15.7 160.73-14.75L160.73-14.75Q161.13-14.2 161.13-13.5L161.13-13.5Q161.13-11.4 157.73-8.9L157.73-8.9Q156.73-8.2 155.6-7.63 154.48-7.05 153.18-6.8L153.18-6.8 151.03-6.35Q149.83-4.2 149.83-2.75L149.83-2.75Q149.83-0.75 152.18-0.75L152.18-0.75Q154.03-0.75 156.68-2.3L156.68-2.3Q160.23-4.35 162.78-8L162.78-8Q163.18-8.6 163.53-8.6L163.53-8.6Q163.68-8.6 163.68-8.4L163.68-8.4Q163.68-8.15 163.33-7.65L163.33-7.65Q158.48-0.35 152.38 0.35L152.38 0.35Q152.18 0.4 152 0.4 151.83 0.4 151.63 0.4ZM151.63-7.2L151.63-7.2Q153.03-7.2 155.23-8.45L155.23-8.45Q158.33-10.2 159.58-12.95L159.58-12.95Q159.93-13.65 159.93-14.1L159.93-14.1Q159.93-14.55 159.58-14.55L159.58-14.55Q158.93-14.55 156.93-12.95L156.93-12.95Q155.48-11.7 154.1-10.28 152.73-8.85 151.48-7.25L151.48-7.25Q151.43-7.2 151.63-7.2ZM161.67 2.05L161.67 2.05Q161.47 2.05 161.47 1.9L161.47 1.9Q161.47 1.25 164.87-0.5L164.87-0.5Q165.72-0.9 166.42-1.33 167.12-1.75 167.62-2.1L167.62-2.1Q170.67-4.35 170.67-6L170.67-6Q170.67-7.25 168.22-7.25L168.22-7.25Q162.52-7.35 162.52-9.75L162.52-9.75Q162.52-10.8 163.42-11.75L163.42-11.75Q164.47-12.95 166.92-14.05L166.92-14.05Q169.57-15.25 171.77-15.25L171.77-15.25Q173.72-15.25 174.72-14.3L174.72-14.3Q175.17-13.85 175.17-13.2L175.17-13.2Q175.17-12.5 174.72-11.95 174.27-11.4 173.72-11.4L173.72-11.4Q172.72-11.4 172.62-12.75L172.62-12.75Q172.62-13.7 172.32-13.85 172.02-14 170.72-14L170.72-14Q169.07-14 167.02-12.9L167.02-12.9Q164.57-11.65 164.72-9.9L164.72-9.9Q164.82-8.9 168.52-8.9L168.52-8.9Q173.57-8.9 173.57-6.45L173.57-6.45Q173.57-3.8 169.22-1.15L169.22-1.15Q166.47 0.55 162.52 1.85L162.52 1.85Q161.97 2.05 161.67 2.05Z" opacity="1" transform="matrix(1,0,0,1,0,0)" fill="#6a704c" class="slogan-text-1" data-fill-palette-color="secondary" id="text-1"></path></svg></g></svg></g></svg></g></svg></g><g transform="matrix(1,0,0,1,0,22.91398126991787)"><svg viewBox="0 0 245.65351679999995 164.72226504866123" height="164.72226504866123" width="245.65351679999995"><g><svg xmlns="http://www.w3.org/2000/svg" xmlns:xlink="http://www.w3.org/1999/xlink" version="1.1" x="0" y="0" viewBox="2.2 15.4 85.89999999999999 57.6" enable-background="new 0 0 90 90" xml:space="preserve" height="164.72226504866123" width="245.65351679999995" class="icon-icon-0" data-fill-palette-color="accent" id="icon-0"><g fill="#412e27" data-fill-palette-color="accent"><path d="M6.6 25C6.6 26.4 7.7 27.5 9.1 27.5S11.6 26.4 11.6 25 10.5 22.5 9.1 22.5 6.6 23.6 6.6 25M10.7 25C10.7 25.9 10 26.6 9.1 26.6S7.5 25.9 7.5 25 8.2 23.4 9.1 23.4 10.7 24.1 10.7 25" fill="#412e27" data-fill-palette-color="accent"></path><path d="M64.3 27.8H17.2V41.9H64.3zM63.4 41H18.1V28.7H63.4z" fill="#412e27" data-fill-palette-color="accent"></path><path d="M17.2 53.3H30V43.6H17.2zM18.1 44.5H29V52.4H18.1z" fill="#412e27" data-fill-palette-color="accent"></path><rect x="32.9" y="44.2" width="31" height="0.9" fill="#412e27" data-fill-palette-color="accent"></rect><rect x="32.9" y="46.6" width="31" height="0.9" fill="#412e27" data-fill-palette-color="accent"></rect><rect x="32.9" y="49.1" width="31" height="0.9" fill="#412e27" data-fill-palette-color="accent"></rect><rect x="32.9" y="51.6" width="18" height="0.9" fill="#412e27" data-fill-palette-color="accent"></rect><rect x="27.8" y="70.5" width="26.1" height="2.5" fill="#412e27" data-fill-palette-color="accent"></rect><path d="M4.1 20.5H77.6V31.4H79.4V20.5C79.4 17.7 77.1 15.4 74.3 15.4H7.3C4.5 15.4 2.2 17.7 2.2 20.5V58.5C2.2 61.3 4.5 63.6 7.3 63.6H31.4L31 69.4H32.8L33.3 63.6H48.4L48.9 69.4H50.7L50.2 63.6H66.1V57.6H4.1z" fill="#412e27" data-fill-palette-color="accent"></path><path d="M82.2 32.3H73C69.7 32.3 67.1 35 67.1 38.2V66.3C67.1 69.6 69.8 72.2 73 72.2H82.2C85.5 72.2 88.1 69.5 88.1 66.3V38.2C88.1 35 85.4 32.3 82.2 32.3M68.2 64.8V38.6H86.9V64.8zM75.9 35.2H79.2C79.5 35.2 79.8 35.5 79.8 35.8S79.5 36.4 79.2 36.4H75.9C75.6 36.4 75.3 36.1 75.3 35.8S75.5 35.2 75.9 35.2M79.3 68C79.3 68.7 78.7 69.3 78 69.3H77.3C76.6 69.3 76 68.7 76 68S76.6 66.7 77.3 66.7H78C78.6 66.6 79.3 67.2 79.3 68" fill="#412e27" data-fill-palette-color="accent"></path><path d="M68.9 49.9H86.1V43.2H68.9zM69.7 44H85.2V49H69.7z" fill="#412e27" data-fill-palette-color="accent"></path><path d="M77.2 50.3H68.8V57H77.2zM76.4 56.2H69.8V51.2H76.4z" fill="#412e27" data-fill-palette-color="accent"></path><path d="M77.7 57H86.1V50.3H77.7zM78.6 51.2H85.2V56.2H78.6z" fill="#412e27" data-fill-palette-color="accent"></path><path d="M77.4 42.6C78.4 42.6 79.2 41.8 79.2 40.8S78.3 39 77.4 39 75.6 39.8 75.6 40.8 76.4 42.6 77.4 42.6M77.4 39.9C77.9 39.9 78.3 40.3 78.3 40.8S77.9 41.7 77.4 41.7 76.5 41.3 76.5 40.8 76.8 39.9 77.4 39.9" fill="#412e27" data-fill-palette-color="accent"></path><rect x="68.9" y="57.9" width="17.2" height="0.9" fill="#412e27" data-fill-palette-color="accent"></rect><rect x="68.9" y="59.6" width="17.2" height="0.9" fill="#412e27" data-fill-palette-color="accent"></rect><rect x="68.9" y="61.2" width="17.2" height="0.9" fill="#412e27" data-fill-palette-color="accent"></rect><rect x="68.9" y="62.8" width="10.1" height="0.9" fill="#412e27" data-fill-palette-color="accent"></rect></g></svg></g></svg></g></svg></g><defs></defs></svg><rect width="395.52" height="124.09584013848325" fill="none" stroke="none" visibility="hidden"></rect></g></svg></g></svg>