<svg xmlns="http://www.w3.org/2000/svg" version="1.1" xmlns:xlink="http://www.w3.org/1999/xlink" xmlns:svgjs="http://svgjs.dev/svgjs" width="1500" height="1500" viewBox="0 0 1500 1500"><g transform="matrix(1,0,0,1,-0.21332335329316265,-0.21332335329350371)"><svg viewBox="0 0 334 334" data-background-color="#ffffff" preserveAspectRatio="xMidYMid meet" height="1500" width="1500" xmlns="http://www.w3.org/2000/svg" xmlns:xlink="http://www.w3.org/1999/xlink"><g id="tight-bounds" transform="matrix(1,0,0,1,0.04749999999998522,0.04750000000001364)"><svg viewBox="0 0 333.90454557049503 333.90454557049503" height="333.90454557049503" width="333.90454557049503"><g><svg></svg></g><g><svg viewBox="0 0 333.90454557049503 333.90454557049503" height="333.90454557049503" width="333.90454557049503"><g><path d="M0 166.952c0-92.205 74.747-166.952 166.952-166.952 92.205 0 166.952 74.747 166.953 166.952 0 92.205-74.747 166.952-166.953 166.953-92.205 0-166.952-74.747-166.952-166.953zM166.952 329.798c89.937 0 162.845-72.908 162.846-162.846 0-89.937-72.908-162.845-162.846-162.845-89.937 0-162.845 72.908-162.845 162.845 0 89.937 72.908 162.845 162.845 162.846z" data-fill-palette-color="tertiary" fill="#31302e" stroke="transparent"></path><ellipse rx="160.27418187383762" ry="160.27418187383762" cx="166.95227278524752" cy="166.95227278524752" fill="#31302e" stroke="transparent" stroke-width="0" fill-opacity="1" data-fill-palette-color="tertiary"></ellipse></g><g transform="matrix(1,0,0,1,82.58860579830946,71.17305217166896)"><svg viewBox="0 0 168.7273339738761 191.55844122715712" height="191.55844122715712" width="168.7273339738761"><g><svg viewBox="0 0 168.7273339738761 191.55844122715712" height="191.55844122715712" width="168.7273339738761"><g><svg viewBox="0 0 213.15844122715708 242.0016826805716" height="191.55844122715712" width="168.7273339738761"><g transform="matrix(1,0,0,1,0,144.932550057101)"><svg viewBox="0 0 213.15844122715708 97.06913262347062" height="97.06913262347062" width="213.15844122715708"><g id="textblocktransform"><svg viewBox="0 0 213.15844122715708 97.06913262347062" height="97.06913262347062" width="213.15844122715708" id="textblock"><g><svg viewBox="0 0 213.15844122715708 57.532208956063215" height="57.532208956063215" width="213.15844122715708"><g transform="matrix(1,0,0,1,0,0)"><svg width="213.15844122715708" viewBox="3.95 -35.55 165.79000000000002 44.75" height="57.532208956063215" data-palette-color="#ffffff"><path d="M8.5 0L3.95 0 3.95-16 3.95-25.85 8-25.85 7.55-17.65 8.4-17.65Q9.05-20.6 10.15-22.58 11.25-24.55 12.88-25.53 14.5-26.5 16.6-26.5L16.6-26.5Q19.1-26.5 20.7-25.28 22.3-24.05 23.08-22.1 23.85-20.15 23.85-17.8L23.85-17.8 24.65-17.8Q25.2-20.6 26.35-22.55 27.5-24.5 29.2-25.5 30.9-26.5 33.1-26.5L33.1-26.5Q35.1-26.5 36.6-25.7 38.1-24.9 39.15-23.33 40.2-21.75 40.7-19.45 41.2-17.15 41.2-14.15L41.2-14.15 41.2 0 36.65 0 36.65-13.55Q36.65-16.5 36.1-18.48 35.55-20.45 34.48-21.43 33.4-22.4 31.75-22.4L31.75-22.4Q29.9-22.4 28.43-21.13 26.95-19.85 26.03-17.57 25.1-15.3 24.8-12.4L24.8-12.4 24.8 0 20.35 0 20.35-13.1Q20.35-16.2 19.8-18.25 19.25-20.3 18.18-21.35 17.1-22.4 15.4-22.4L15.4-22.4Q13.4-22.4 11.95-21.03 10.5-19.65 9.63-17.35 8.75-15.05 8.5-12.2L8.5-12.2 8.5 0ZM59.8 0.65L59.8 0.65Q56.1 0.65 53.27-0.98 50.45-2.6 48.87-5.65 47.3-8.7 47.3-13.05L47.3-13.05Q47.3-17.55 48.97-20.53 50.65-23.5 53.45-25 56.25-26.5 59.7-26.5L59.7-26.5Q63.3-26.5 66.12-24.93 68.95-23.35 70.6-20.33 72.25-17.3 72.25-12.85L72.25-12.85Q72.25-8.4 70.62-5.4 69-2.4 66.17-0.88 63.35 0.65 59.8 0.65ZM60-3.1L60-3.1Q62.4-3.1 64.12-4.28 65.85-5.45 66.77-7.6 67.7-9.75 67.7-12.7L67.7-12.7Q67.7-15.75 66.72-17.98 65.75-20.2 63.95-21.43 62.15-22.65 59.6-22.65L59.6-22.65Q57.25-22.65 55.52-21.55 53.8-20.45 52.85-18.32 51.9-16.2 51.9-13.15L51.9-13.15Q51.9-8.45 54.07-5.78 56.25-3.1 60-3.1ZM76.34 9.2L76.34 9.2Q75.7 9.2 74.95 9.08 74.2 8.95 73.34 8.7L73.34 8.7 73 4.5Q76.25 5.25 77.72 4.5 79.2 3.75 79.2 0.7L79.2 0.7 79.2-25.85 83.8-25.85 83.8 0.2Q83.8 2.4 83.32 4.1 82.84 5.8 81.95 6.93 81.05 8.05 79.64 8.63 78.25 9.2 76.34 9.2ZM81.5-30.35L81.5-30.35Q79.89-30.35 79.09-31 78.3-31.65 78.3-32.95L78.3-32.95Q78.3-34.25 79.09-34.9 79.89-35.55 81.45-35.55L81.45-35.55Q83.05-35.55 83.84-34.9 84.65-34.25 84.65-32.95L84.65-32.95Q84.65-31.7 83.84-31.03 83.05-30.35 81.5-30.35ZM89.29 9.2L89.29 9.2Q88.64 9.2 87.89 9.08 87.14 8.95 86.29 8.7L86.29 8.7 85.94 4.5Q89.19 5.25 90.67 4.5 92.14 3.75 92.14 0.7L92.14 0.7 92.14-25.85 96.74-25.85 96.74 0.2Q96.74 2.4 96.27 4.1 95.79 5.8 94.89 6.93 93.99 8.05 92.59 8.63 91.19 9.2 89.29 9.2ZM94.44-30.35L94.44-30.35Q92.84-30.35 92.04-31 91.24-31.65 91.24-32.95L91.24-32.95Q91.24-34.25 92.04-34.9 92.84-35.55 94.39-35.55L94.39-35.55Q95.99-35.55 96.79-34.9 97.59-34.25 97.59-32.95L97.59-32.95Q97.59-31.7 96.79-31.03 95.99-30.35 94.44-30.35ZM110.59 0.65L110.59 0.65Q108.49 0.65 106.79-0.18 105.09-1 104.09-2.63 103.09-4.25 103.09-6.75L103.09-6.75Q103.09-8.6 103.77-10 104.44-11.4 105.87-12.4 107.29-13.4 109.54-14.05 111.79-14.7 115.04-15.15L115.04-15.15Q116.89-15.4 118.07-15.65 119.24-15.9 119.79-16.48 120.34-17.05 120.34-18.2L120.34-18.2Q120.34-20.1 119.04-21.4 117.74-22.7 114.94-22.7L114.94-22.7Q113.49-22.7 111.99-22.2 110.49-21.7 109.37-20.53 108.24-19.35 107.94-17.25L107.94-17.25 103.74-18.65Q104.14-20.45 105.07-21.9 105.99-23.35 107.44-24.38 108.89-25.4 110.82-25.95 112.74-26.5 115.09-26.5L115.09-26.5Q118.34-26.5 120.52-25.4 122.69-24.3 123.77-22.03 124.84-19.75 124.84-16.2L124.84-16.2 124.84-10.45Q124.84-8.9 124.92-7.08 124.99-5.25 125.14-3.43 125.29-1.6 125.44 0L125.44 0 121.24 0Q121.09-1.6 120.97-3.2 120.84-4.8 120.79-6.4L120.79-6.4 120.14-6.4Q119.39-4.55 118.14-2.95 116.89-1.35 115.02-0.35 113.14 0.65 110.59 0.65ZM111.94-3.05L111.94-3.05Q113.04-3.05 114.17-3.4 115.29-3.75 116.42-4.55 117.54-5.35 118.57-6.6 119.59-7.85 120.39-9.6L120.39-9.6 120.39-14.6 121.69-14.35Q120.89-13.55 119.57-13.15 118.24-12.75 116.64-12.5 115.04-12.25 113.44-11.98 111.84-11.7 110.52-11.18 109.19-10.65 108.39-9.7 107.59-8.75 107.59-7.1L107.59-7.1Q107.59-5.1 108.79-4.08 109.99-3.05 111.94-3.05ZM137.04 0L132.49 0 132.49-16 132.49-25.85 136.54-25.85 136.09-17.65 136.94-17.65Q137.59-20.6 138.69-22.58 139.79-24.55 141.41-25.53 143.04-26.5 145.14-26.5L145.14-26.5Q147.64-26.5 149.24-25.28 150.84-24.05 151.61-22.1 152.39-20.15 152.39-17.8L152.39-17.8 153.19-17.8Q153.74-20.6 154.89-22.55 156.04-24.5 157.74-25.5 159.44-26.5 161.64-26.5L161.64-26.5Q163.64-26.5 165.14-25.7 166.64-24.9 167.69-23.33 168.74-21.75 169.24-19.45 169.74-17.15 169.74-14.15L169.74-14.15 169.74 0 165.19 0 165.19-13.55Q165.19-16.5 164.64-18.48 164.09-20.45 163.01-21.43 161.94-22.4 160.29-22.4L160.29-22.4Q158.44-22.4 156.96-21.13 155.49-19.85 154.56-17.57 153.64-15.3 153.34-12.4L153.34-12.4 153.34 0 148.89 0 148.89-13.1Q148.89-16.2 148.34-18.25 147.79-20.3 146.71-21.35 145.64-22.4 143.94-22.4L143.94-22.4Q141.94-22.4 140.49-21.03 139.04-19.65 138.16-17.35 137.29-15.05 137.04-12.2L137.04-12.2 137.04 0Z" opacity="1" transform="matrix(1,0,0,1,0,0)" fill="#ffffff" class="wordmark-text-0" data-fill-palette-color="quaternary" id="text-0"></path></svg></g></svg></g><g transform="matrix(1,0,0,1,0,71.11418271757479)"><svg viewBox="0 0 213.15844122715708 25.954949905895823" height="25.954949905895823" width="213.15844122715708"><g transform="matrix(1,0,0,1,0,0)"><svg width="213.15844122715708" viewBox="0.75 -37.5 390.07 47.5" height="25.954949905895823" data-palette-color="#ffffff"><path d="M13.25-22.5L13.25 0 8.25 0 8.25-22.5 0.75-22.5 0.75-27.5 8.25-27.5 8.25-37.5 13.25-37.5 13.25-27.5 30.75-27.5 30.75-22.5 13.25-22.5ZM66.7-18.75L66.7-18.75Q66.7-16.35 65.52-14.35 64.35-12.35 62.37-11.18 60.4-10 57.95-10L57.95-10 38.8-10Q39.85-7.8 41.92-6.4 44-5 46.6-5L46.6-5 62.95-5 62.95 0 46.6 0Q43.75 0 41.27-1.07 38.8-2.15 36.92-4.05 35.05-5.95 34-8.43 32.95-10.9 32.95-13.75L32.95-13.75Q32.95-16.6 34-19.07 35.05-21.55 36.92-23.45 38.8-25.35 41.27-26.43 43.75-27.5 46.6-27.5L46.6-27.5 57.95-27.5Q60.4-27.5 62.37-26.33 64.35-25.15 65.52-23.18 66.7-21.2 66.7-18.75ZM38.05-15L57.95-15Q59.5-15 60.6-16.1 61.7-17.2 61.7-18.75L61.7-18.75Q61.7-20.3 60.6-21.4 59.5-22.5 57.95-22.5L57.95-22.5 46.6-22.5Q44.4-22.5 42.57-21.5 40.75-20.5 39.55-18.8 38.35-17.1 38.05-15L38.05-15ZM99.84-5L99.84 0 83.5 0Q80.65 0 78.17-1.07 75.7-2.15 73.82-4.05 71.95-5.95 70.9-8.43 69.84-10.9 69.84-13.75L69.84-13.75Q69.84-16.6 70.9-19.07 71.95-21.55 73.82-23.45 75.7-25.35 78.17-26.43 80.65-27.5 83.5-27.5L83.5-27.5 99.84-27.5 99.84-22.5 83.5-22.5Q81.09-22.5 79.15-21.3 77.2-20.1 76.02-18.13 74.84-16.15 74.84-13.75L74.84-13.75Q74.84-11.35 76.02-9.38 77.2-7.4 79.15-6.2 81.09-5 83.5-5L83.5-5 99.84-5ZM137.74-13.75L137.74 0 132.74 0 132.74-13.75Q132.74-16.15 131.59-18.13 130.44-20.1 128.47-21.3 126.49-22.5 124.09-22.5L124.09-22.5 110.34-22.5 110.34 0 105.34 0 105.34-37.5 110.34-37.5 110.34-27.5 124.09-27.5Q126.94-27.5 129.42-26.43 131.89-25.35 133.77-23.45 135.64-21.55 136.69-19.07 137.74-16.6 137.74-13.75L137.74-13.75ZM149.49-22.5L149.49 0 144.49 0 144.49-27.5 163.24-27.5Q166.09-27.5 168.57-26.43 171.04-25.35 172.92-23.45 174.79-21.55 175.84-19.07 176.89-16.6 176.89-13.75L176.89-13.75 176.89 0 171.89 0 171.89-13.75Q171.89-16.15 170.74-18.13 169.59-20.1 167.62-21.3 165.64-22.5 163.24-22.5L163.24-22.5 149.49-22.5ZM216.89-13.75L216.89-13.75Q216.89-10.9 215.84-8.43 214.79-5.95 212.91-4.05 211.04-2.15 208.56-1.07 206.09 0 203.24 0L203.24 0 195.54 0Q192.69 0 190.21-1.07 187.74-2.15 185.86-4.05 183.99-5.95 182.94-8.43 181.89-10.9 181.89-13.75L181.89-13.75Q181.89-16.6 182.94-19.07 183.99-21.55 185.86-23.45 187.74-25.35 190.21-26.43 192.69-27.5 195.54-27.5L195.54-27.5 203.24-27.5Q206.09-27.5 208.56-26.43 211.04-25.35 212.91-23.45 214.79-21.55 215.84-19.07 216.89-16.6 216.89-13.75ZM211.89-13.75L211.89-13.75Q211.89-16.15 210.74-18.13 209.59-20.1 207.61-21.3 205.64-22.5 203.24-22.5L203.24-22.5 195.54-22.5Q193.14-22.5 191.19-21.3 189.24-20.1 188.06-18.13 186.89-16.15 186.89-13.75L186.89-13.75Q186.89-11.35 188.06-9.38 189.24-7.4 191.19-6.2 193.14-5 195.54-5L195.54-5 203.24-5Q205.64-5 207.61-6.2 209.59-7.4 210.74-9.38 211.89-11.35 211.89-13.75ZM232.14-5L232.14 0 230.89 0Q228.49 0 226.49-1.18 224.49-2.35 223.31-4.33 222.14-6.3 222.14-8.75L222.14-8.75 222.14-37.5 227.14-37.5 227.14-8.75Q227.14-7.2 228.24-6.1 229.34-5 230.89-5L230.89-5 232.14-5ZM269.73-13.75L269.73-13.75Q269.73-10.9 268.68-8.43 267.63-5.95 265.76-4.05 263.88-2.15 261.41-1.07 258.93 0 256.08 0L256.08 0 248.38 0Q245.53 0 243.06-1.07 240.58-2.15 238.71-4.05 236.83-5.95 235.78-8.43 234.73-10.9 234.73-13.75L234.73-13.75Q234.73-16.6 235.78-19.07 236.83-21.55 238.71-23.45 240.58-25.35 243.06-26.43 245.53-27.5 248.38-27.5L248.38-27.5 256.08-27.5Q258.93-27.5 261.41-26.43 263.88-25.35 265.76-23.45 267.63-21.55 268.68-19.07 269.73-16.6 269.73-13.75ZM264.73-13.75L264.73-13.75Q264.73-16.15 263.58-18.13 262.43-20.1 260.46-21.3 258.48-22.5 256.08-22.5L256.08-22.5 248.38-22.5Q245.98-22.5 244.03-21.3 242.08-20.1 240.91-18.13 239.73-16.15 239.73-13.75L239.73-13.75Q239.73-11.35 240.91-9.38 242.08-7.4 244.03-6.2 245.98-5 248.38-5L248.38-5 256.08-5Q258.48-5 260.46-6.2 262.43-7.4 263.58-9.38 264.73-11.35 264.73-13.75ZM305.83-27.5L305.83 1.25Q305.83 3.65 304.66 5.65 303.48 7.65 301.48 8.83 299.48 10 297.08 10L297.08 10 277.08 10 277.08 5 297.08 5Q298.63 5 299.73 3.9 300.83 2.8 300.83 1.25L300.83 1.25 300.83-22.5 287.08-22.5Q284.68-22.5 282.73-21.3 280.78-20.1 279.61-18.13 278.43-16.15 278.43-13.75L278.43-13.75Q278.43-11.35 279.61-9.38 280.78-7.4 282.73-6.23 284.68-5.05 287.08-5L287.08-5 298.33-5 298.33 0 287.08 0Q284.23 0 281.76-1.07 279.28-2.15 277.41-4.05 275.53-5.95 274.48-8.43 273.43-10.9 273.43-13.75L273.43-13.75Q273.43-16.6 274.48-19.07 275.53-21.55 277.41-23.45 279.28-25.35 281.76-26.43 284.23-27.5 287.08-27.5L287.08-27.5 305.83-27.5ZM319.28-33.75L319.28-33.75Q319.28-32.2 318.18-31.1 317.08-30 315.53-30L315.53-30Q313.98-30 312.88-31.1 311.78-32.2 311.78-33.75L311.78-33.75Q311.78-35.3 312.88-36.4 313.98-37.5 315.53-37.5L315.53-37.5Q317.08-37.5 318.18-36.4 319.28-35.3 319.28-33.75ZM318.03-27.5L318.03 0 313.03 0 313.03-27.5 318.03-27.5ZM357.23-18.75L357.23-18.75Q357.23-16.35 356.05-14.35 354.88-12.35 352.9-11.18 350.93-10 348.48-10L348.48-10 329.33-10Q330.38-7.8 332.45-6.4 334.53-5 337.13-5L337.13-5 353.48-5 353.48 0 337.13 0Q334.28 0 331.8-1.07 329.33-2.15 327.45-4.05 325.58-5.95 324.53-8.43 323.48-10.9 323.48-13.75L323.48-13.75Q323.48-16.6 324.53-19.07 325.58-21.55 327.45-23.45 329.33-25.35 331.8-26.43 334.28-27.5 337.13-27.5L337.13-27.5 348.48-27.5Q350.93-27.5 352.9-26.33 354.88-25.15 356.05-23.18 357.23-21.2 357.23-18.75ZM328.58-15L348.48-15Q350.03-15 351.13-16.1 352.23-17.2 352.23-18.75L352.23-18.75Q352.23-20.3 351.13-21.4 350.03-22.5 348.48-22.5L348.48-22.5 337.13-22.5Q334.93-22.5 333.1-21.5 331.28-20.5 330.08-18.8 328.88-17.1 328.58-15L328.58-15ZM390.82-8.75L390.82-8.75Q390.82-6.3 389.65-4.33 388.47-2.35 386.5-1.18 384.52 0 382.07 0L382.07 0 360.82 0 360.82-5 382.07-5Q383.62-5 384.72-6.1 385.82-7.2 385.82-8.75L385.82-8.75Q385.82-10.3 384.72-11.4 383.62-12.5 382.07-12.5L382.07-12.5 368.32-12.5Q366.27-12.5 364.55-13.5 362.82-14.5 361.82-16.23 360.82-17.95 360.82-20L360.82-20Q360.82-22.1 361.82-23.8 362.82-25.5 364.55-26.5 366.27-27.5 368.32-27.5L368.32-27.5 388.32-27.5 388.32-22.5 368.32-22.5Q367.27-22.5 366.55-21.78 365.82-21.05 365.82-20L365.82-20Q365.82-18.95 366.55-18.23 367.27-17.5 368.32-17.5L368.32-17.5 382.07-17.5Q384.52-17.5 386.5-16.32 388.47-15.15 389.65-13.18 390.82-11.2 390.82-8.75Z" opacity="1" transform="matrix(1,0,0,1,0,0)" fill="#ffffff" class="slogan-text-1" data-fill-palette-color="quaternary" id="text-1"></path></svg></g></svg></g></svg></g></svg></g><g transform="matrix(1,0,0,1,40.713262274387006,0)"><svg viewBox="0 0 131.73191667838307 131.3505762955894" height="131.3505762955894" width="131.73191667838307"><g><svg xmlns="http://www.w3.org/2000/svg" xmlns:xlink="http://www.w3.org/1999/xlink" version="1.1" x="0" y="0" viewBox="1 1 62.18 62" style="enable-background:new 0 0 64 64;" xml:space="preserve" height="131.3505762955894" width="131.73191667838307" class="icon-icon-0" data-fill-palette-color="quaternary" id="icon-0"><g fill="#ffffff" data-fill-palette-color="quaternary"><path d="M60.977 49.774A10.98 10.98 0 0 0 53.605 41.147L45 38.279V37H43V38.749L36 51.875 29 38.75V37H27V39.25L35 54.25V56H23V58H35V61H20.133L20.931 54.615A4.59 4.59 0 0 0 23 50.764V50H21V50.764C21 51.762 20.445 52.66 19.553 53.106L19.074 53.345 18.117 61H11.18L12.319 54.164 10.346 53.836 8.819 63H63.18zM37 58H49V56H37V54.25L44.485 40.216 49 41.72V50.763A4.59 4.59 0 0 0 51.069 54.615L51.867 61H37zM53.883 61L52.926 53.345 52.447 53.106A2.61 2.61 0 0 1 51 50.764V42.387L52.972 43.044A8.99 8.99 0 0 1 59.004 50.103L60.819 61z" fill="#ffffff" data-fill-palette-color="quaternary"></path><path d="M19 23C19 25.566 20.95 27.662 23.442 27.944A10.9 10.9 0 0 0 26.222 32.636L30.121 36.535A4.97 4.97 0 0 0 33.657 38H38.343A4.97 4.97 0 0 0 41.879 36.535L45.778 32.636A10.94 10.94 0 0 0 48.558 27.944C51.05 27.662 53 25.566 53 23 53 21.87 52.609 20.838 51.974 20H54V14H50.857C50.062 8.097 45.753 3.158 40 1.564V1H32V1.564C26.248 3.158 21.939 8.097 21.143 14H18V20H20.026A4.95 4.95 0 0 0 19 23M21 23C21 21.698 21.839 20.598 23 20.184V24.857C23 25.184 23.019 25.508 23.047 25.83A2.99 2.99 0 0 1 21 23M44.364 31.222L40.465 35.121A2.98 2.98 0 0 1 38.343 36H33.657A2.98 2.98 0 0 1 31.535 35.121L27.636 31.222A8.95 8.95 0 0 1 25 24.858V20H47V24.857A8.95 8.95 0 0 1 44.364 31.222M48.953 25.83A11 11 0 0 0 49 24.857V20.184C50.161 20.598 51 21.698 51 23 51 24.319 50.138 25.43 48.953 25.83M32 3.646V12H34V3H38V12H40V3.646C44.634 5.149 48.094 9.185 48.846 14H23.154C23.907 9.184 27.366 5.149 32 3.646M20 16H52V18H20z" fill="#ffffff" data-fill-palette-color="quaternary"></path><rect x="42" y="10" width="2" height="2" fill="#ffffff" data-fill-palette-color="quaternary"></rect><rect x="28" y="10" width="2" height="2" fill="#ffffff" data-fill-palette-color="quaternary"></rect><path d="M10.181 52H15.82L16.337 49.422C16.668 49.306 16.992 49.172 17.307 49.023L19.494 50.48 23.481 46.493 22.024 44.306C22.173 43.992 22.307 43.667 22.423 43.336L25 42.819V37.18L22.422 36.663A10 10 0 0 0 21.738 35.142L19.99 36.115A8 8 0 0 1 20.686 37.803L20.854 38.389 23 38.819V41.18L20.854 41.61 20.686 42.196A8 8 0 0 1 19.99 43.884L19.693 44.417 20.905 46.235 19.236 47.904 17.418 46.692 16.885 46.989A8 8 0 0 1 15.197 47.685L14.611 47.852 14.181 50H11.82L11.39 47.854 10.804 47.687A8 8 0 0 1 9.116 46.991L8.583 46.694 6.765 47.906 4.516 45.658 3.102 47.072 6.509 50.48 8.696 49.023C9.01 49.172 9.335 49.306 9.666 49.422z" fill="#ffffff" data-fill-palette-color="quaternary"></path><path d="M4.262 44.857L6.01 43.884A8 8 0 0 1 5.314 42.196L5.146 41.61 3 41.181V38.82L5.146 38.39 5.314 37.804A8 8 0 0 1 6.01 36.116L6.307 35.583 5.095 33.765 6.764 32.096 8.582 33.308 9.115 33.011A8 8 0 0 1 10.803 32.315L11.389 32.148 11.819 30H14.18L14.61 32.146 15.196 32.313A8 8 0 0 1 16.884 33.009L17.417 33.306 19.235 32.094 21.484 34.342 22.898 32.928 19.491 29.52 17.304 30.977A10 10 0 0 0 16.334 30.578L15.819 28H10.18L9.663 30.578C9.332 30.694 9.008 30.828 8.693 30.977L6.506 29.52 2.519 33.507 3.976 35.694A10 10 0 0 0 3.577 36.664L1 37.181V42.82L3.578 43.337C3.765 43.865 3.993 44.375 4.262 44.857" fill="#ffffff" data-fill-palette-color="quaternary"></path><path d="M13 35C10.243 35 8 37.243 8 40S10.243 45 13 45 18 42.757 18 40 15.757 35 13 35M13 43C11.346 43 10 41.654 10 40S11.346 37 13 37 16 38.346 16 40 14.654 43 13 43" fill="#ffffff" data-fill-palette-color="quaternary"></path></g></svg></g></svg></g><g></g></svg></g></svg></g></svg></g></svg></g><defs></defs></svg><rect width="333.90454557049503" height="333.90454557049503" fill="none" stroke="none" visibility="hidden"></rect></g></svg></g></svg>